%
M48
M72
T01C0.02362
T02C0.03200
T03C0.03937
T04C0.04000
T05C0.04400
%
T01
X31800Y36800
X31800Y81800
X119300Y156800
T02
X101800Y171800
X81800Y171800
X136800Y116800
X141800Y96800
X161800Y96800
X156800Y116800
T03
X9300Y9300
X174300Y9300
X174300Y194300
X9300Y194300
T04
X26800Y156800
X26800Y146800
X26800Y136800
X26800Y126800
X26800Y116800
X26800Y106800
X26800Y96800
X137900Y139000
X155700Y139000
X155700Y164600
X137900Y164600
X146800Y71800
X146800Y61800
X146800Y51800
X146800Y41800
X146800Y31800
X146800Y21800
T05
X106800Y51800
X106800Y61800
X106800Y71800
X106800Y81800
X106800Y91800
X106800Y101800
X106800Y111800
X106800Y121800
X106800Y131800
X106800Y141800
X76800Y141800
X76800Y131800
X76800Y121800
X76800Y111800
X76800Y101800
X76800Y91800
X76800Y81800
X76800Y71800
X76800Y61800
X76800Y51800
M30
