%
M48
M72
T01C0.02362
T02C0.03200
T03C0.03937
T04C0.04000
T05C0.04400
%
T01
X35300Y29300
X35300Y74300
X122800Y149300
T02
X105300Y164300
X85300Y164300
X140300Y109300
X160300Y109300
X165300Y89300
X145300Y89300
T03
X9300Y8800
X9300Y185300
X185800Y185300
X185800Y8800
T04
X150300Y14300
X150300Y24300
X150300Y34300
X150300Y44300
X150300Y54300
X150300Y64300
X141400Y131500
X159200Y131500
X159200Y157100
X141400Y157100
X30300Y149300
X30300Y139300
X30300Y129300
X30300Y119300
X30300Y109300
X30300Y99300
X30300Y89300
T05
X80300Y84300
X80300Y74300
X80300Y64300
X80300Y54300
X80300Y44300
X110300Y44300
X110300Y54300
X110300Y64300
X110300Y74300
X110300Y84300
X110300Y94300
X110300Y104300
X110300Y114300
X110300Y124300
X110300Y134300
X80300Y134300
X80300Y124300
X80300Y114300
X80300Y104300
X80300Y94300
M30
