%
M48
M72
T01C0.02362
T02C0.03200
T03C0.03937
T04C0.04000
T05C0.04400
%
T01
X29300Y29300
X29300Y74300
X116800Y149300
T02
X99300Y164300
X79300Y164300
X134300Y109300
X154300Y109300
X159300Y89300
X139300Y89300
T03
X9300Y9300
X9300Y179300
X179300Y179300
X179300Y9300
T04
X144300Y14300
X144300Y24300
X144300Y34300
X144300Y44300
X144300Y54300
X144300Y64300
X135400Y131500
X153200Y131500
X153200Y157100
X135400Y157100
X24300Y149300
X24300Y139300
X24300Y129300
X24300Y119300
X24300Y109300
X24300Y99300
X24300Y89300
T05
X74300Y84300
X74300Y74300
X74300Y64300
X74300Y54300
X74300Y44300
X104300Y44300
X104300Y54300
X104300Y64300
X104300Y74300
X104300Y84300
X104300Y94300
X104300Y104300
X104300Y114300
X104300Y124300
X104300Y134300
X74300Y134300
X74300Y124300
X74300Y114300
X74300Y104300
X74300Y94300
M30
