G75*
%MOIN*%
%OFA0B0*%
%FSLAX25Y25*%
%IPPOS*%
%LPD*%
%AMOC8*
5,1,8,0,0,1.08239X$1,22.5*
%
%ADD10OC8,0.06300*%
%ADD11OC8,0.05200*%
%ADD12C,0.06000*%
%ADD13R,0.06600X0.06600*%
%ADD14C,0.06600*%
%ADD15C,0.01600*%
%ADD16R,0.03962X0.03962*%
D10*
X0134300Y0109300D03*
X0154300Y0109300D03*
X0099300Y0164300D03*
X0079300Y0164300D03*
D11*
X0139300Y0089300D03*
X0159300Y0089300D03*
D12*
X0147300Y0064300D02*
X0141300Y0064300D01*
X0141300Y0054300D02*
X0147300Y0054300D01*
X0147300Y0044300D02*
X0141300Y0044300D01*
X0141300Y0034300D02*
X0147300Y0034300D01*
X0147300Y0024300D02*
X0141300Y0024300D01*
X0141300Y0014300D02*
X0147300Y0014300D01*
X0153200Y0128500D02*
X0153200Y0134500D01*
X0135400Y0134500D02*
X0135400Y0128500D01*
X0135400Y0154100D02*
X0135400Y0160100D01*
X0153200Y0160100D02*
X0153200Y0154100D01*
X0027300Y0149300D02*
X0021300Y0149300D01*
X0021300Y0139300D02*
X0027300Y0139300D01*
X0027300Y0129300D02*
X0021300Y0129300D01*
X0021300Y0119300D02*
X0027300Y0119300D01*
X0027300Y0109300D02*
X0021300Y0109300D01*
X0021300Y0099300D02*
X0027300Y0099300D01*
X0027300Y0089300D02*
X0021300Y0089300D01*
D13*
X0074300Y0134300D03*
D14*
X0074300Y0124300D03*
X0074300Y0114300D03*
X0074300Y0104300D03*
X0074300Y0094300D03*
X0074300Y0084300D03*
X0074300Y0074300D03*
X0074300Y0064300D03*
X0074300Y0054300D03*
X0074300Y0044300D03*
X0104300Y0044300D03*
X0104300Y0054300D03*
X0104300Y0064300D03*
X0104300Y0074300D03*
X0104300Y0084300D03*
X0104300Y0094300D03*
X0104300Y0104300D03*
X0104300Y0114300D03*
X0104300Y0124300D03*
X0104300Y0134300D03*
D15*
X0013134Y0015038D02*
X0010646Y0016068D01*
X0007954Y0016068D01*
X0006600Y0015508D01*
X0006600Y0173092D01*
X0007954Y0172531D01*
X0010646Y0172531D01*
X0013134Y0173562D01*
X0015038Y0175466D01*
X0016068Y0177954D01*
X0016068Y0180646D01*
X0015524Y0181961D01*
X0173076Y0181961D01*
X0172531Y0180646D01*
X0172531Y0177954D01*
X0173562Y0175466D01*
X0175466Y0173562D01*
X0177954Y0172531D01*
X0180646Y0172531D01*
X0181201Y0172761D01*
X0181201Y0015839D01*
X0180646Y0016068D01*
X0177954Y0016068D01*
X0175466Y0015038D01*
X0173562Y0013134D01*
X0172531Y0010646D01*
X0172531Y0007954D01*
X0173092Y0006600D01*
X0015508Y0006600D01*
X0016068Y0007954D01*
X0016068Y0010646D01*
X0015038Y0013134D01*
X0013134Y0015038D01*
X0013584Y0014588D02*
X0136500Y0014588D01*
X0136500Y0014500D02*
X0144100Y0014500D01*
X0144100Y0014100D01*
X0144500Y0014100D01*
X0144500Y0014500D01*
X0152100Y0014500D01*
X0152100Y0014678D01*
X0151982Y0015424D01*
X0151748Y0016143D01*
X0151405Y0016816D01*
X0150991Y0017386D01*
X0151718Y0017687D01*
X0153913Y0019882D01*
X0155100Y0022748D01*
X0155100Y0025852D01*
X0153913Y0028718D01*
X0153331Y0029300D01*
X0153913Y0029882D01*
X0155100Y0032748D01*
X0155100Y0035852D01*
X0153913Y0038718D01*
X0153331Y0039300D01*
X0153913Y0039882D01*
X0155100Y0042748D01*
X0155100Y0045852D01*
X0153913Y0048718D01*
X0153331Y0049300D01*
X0153913Y0049882D01*
X0155100Y0052748D01*
X0155100Y0055852D01*
X0153913Y0058718D01*
X0153331Y0059300D01*
X0153913Y0059882D01*
X0155100Y0062748D01*
X0155100Y0065852D01*
X0153913Y0068718D01*
X0151718Y0070913D01*
X0148852Y0072100D01*
X0139748Y0072100D01*
X0136882Y0070913D01*
X0134687Y0068718D01*
X0133500Y0065852D01*
X0133500Y0062748D01*
X0134687Y0059882D01*
X0135269Y0059300D01*
X0134687Y0058718D01*
X0133500Y0055852D01*
X0133500Y0052748D01*
X0134687Y0049882D01*
X0135269Y0049300D01*
X0134687Y0048718D01*
X0133500Y0045852D01*
X0133500Y0042748D01*
X0134687Y0039882D01*
X0135269Y0039300D01*
X0134687Y0038718D01*
X0133500Y0035852D01*
X0133500Y0032748D01*
X0134687Y0029882D01*
X0135269Y0029300D01*
X0134687Y0028718D01*
X0133500Y0025852D01*
X0133500Y0022748D01*
X0134687Y0019882D01*
X0136882Y0017687D01*
X0137609Y0017386D01*
X0137195Y0016816D01*
X0136852Y0016143D01*
X0136618Y0015424D01*
X0136500Y0014678D01*
X0136500Y0014500D01*
X0136500Y0014100D02*
X0136500Y0013922D01*
X0136618Y0013176D01*
X0136852Y0012457D01*
X0137195Y0011784D01*
X0137639Y0011173D01*
X0138173Y0010639D01*
X0138784Y0010195D01*
X0139457Y0009852D01*
X0140176Y0009618D01*
X0140922Y0009500D01*
X0144100Y0009500D01*
X0144100Y0014100D01*
X0136500Y0014100D01*
X0136679Y0012990D02*
X0015098Y0012990D01*
X0015760Y0011391D02*
X0137480Y0011391D01*
X0139639Y0009793D02*
X0016068Y0009793D01*
X0016068Y0008194D02*
X0172531Y0008194D01*
X0172531Y0009793D02*
X0148961Y0009793D01*
X0149143Y0009852D02*
X0148424Y0009618D01*
X0147678Y0009500D01*
X0144500Y0009500D01*
X0144500Y0014100D01*
X0152100Y0014100D01*
X0152100Y0013922D01*
X0151982Y0013176D01*
X0151748Y0012457D01*
X0151405Y0011784D01*
X0150961Y0011173D01*
X0150427Y0010639D01*
X0149816Y0010195D01*
X0149143Y0009852D01*
X0151120Y0011391D02*
X0172840Y0011391D01*
X0173502Y0012990D02*
X0151921Y0012990D01*
X0152100Y0014588D02*
X0175016Y0014588D01*
X0181201Y0016187D02*
X0151726Y0016187D01*
X0151816Y0017785D02*
X0181201Y0017785D01*
X0181201Y0019384D02*
X0153414Y0019384D01*
X0154368Y0020982D02*
X0181201Y0020982D01*
X0181201Y0022581D02*
X0155030Y0022581D01*
X0155100Y0024179D02*
X0181201Y0024179D01*
X0181201Y0025778D02*
X0155100Y0025778D01*
X0154468Y0027376D02*
X0181201Y0027376D01*
X0181201Y0028975D02*
X0153656Y0028975D01*
X0154199Y0030573D02*
X0181201Y0030573D01*
X0181201Y0032172D02*
X0154861Y0032172D01*
X0155100Y0033770D02*
X0181201Y0033770D01*
X0181201Y0035369D02*
X0155100Y0035369D01*
X0154638Y0036967D02*
X0181201Y0036967D01*
X0181201Y0038566D02*
X0153976Y0038566D01*
X0154030Y0040164D02*
X0181201Y0040164D01*
X0181201Y0041763D02*
X0154692Y0041763D01*
X0155100Y0043361D02*
X0181201Y0043361D01*
X0181201Y0044960D02*
X0155100Y0044960D01*
X0154807Y0046558D02*
X0181201Y0046558D01*
X0181201Y0048157D02*
X0154145Y0048157D01*
X0153786Y0049755D02*
X0181201Y0049755D01*
X0181201Y0051354D02*
X0154522Y0051354D01*
X0155100Y0052952D02*
X0181201Y0052952D01*
X0181201Y0054551D02*
X0155100Y0054551D01*
X0154977Y0056149D02*
X0181201Y0056149D01*
X0181201Y0057748D02*
X0154314Y0057748D01*
X0153377Y0059346D02*
X0181201Y0059346D01*
X0181201Y0060945D02*
X0154353Y0060945D01*
X0155015Y0062543D02*
X0181201Y0062543D01*
X0181201Y0064142D02*
X0155100Y0064142D01*
X0155100Y0065740D02*
X0181201Y0065740D01*
X0181201Y0067339D02*
X0154484Y0067339D01*
X0153693Y0068937D02*
X0181201Y0068937D01*
X0181201Y0070536D02*
X0152095Y0070536D01*
X0156235Y0081900D02*
X0162365Y0081900D01*
X0166700Y0086235D01*
X0166700Y0092365D01*
X0162365Y0096700D01*
X0156235Y0096700D01*
X0151900Y0092365D01*
X0151900Y0086235D01*
X0156235Y0081900D01*
X0154811Y0083324D02*
X0143789Y0083324D01*
X0142365Y0081900D02*
X0146700Y0086235D01*
X0146700Y0092365D01*
X0142365Y0096700D01*
X0136235Y0096700D01*
X0131900Y0092365D01*
X0131900Y0086235D01*
X0136235Y0081900D01*
X0142365Y0081900D01*
X0145388Y0084923D02*
X0153212Y0084923D01*
X0151900Y0086521D02*
X0146700Y0086521D01*
X0146700Y0088120D02*
X0151900Y0088120D01*
X0151900Y0089718D02*
X0146700Y0089718D01*
X0146700Y0091317D02*
X0151900Y0091317D01*
X0152450Y0092915D02*
X0146150Y0092915D01*
X0144552Y0094514D02*
X0154048Y0094514D01*
X0155647Y0096112D02*
X0142953Y0096112D01*
X0135647Y0096112D02*
X0112317Y0096112D01*
X0112400Y0095911D02*
X0111167Y0098888D01*
X0110755Y0099300D01*
X0111167Y0099712D01*
X0112400Y0102689D01*
X0112400Y0105911D01*
X0111167Y0108888D01*
X0110755Y0109300D01*
X0111167Y0109712D01*
X0112400Y0112689D01*
X0112400Y0115911D01*
X0111167Y0118888D01*
X0110755Y0119300D01*
X0111167Y0119712D01*
X0112400Y0122689D01*
X0112400Y0125911D01*
X0111167Y0128888D01*
X0108888Y0131167D01*
X0108457Y0131345D01*
X0108662Y0131627D01*
X0109026Y0132342D01*
X0109274Y0133106D01*
X0109400Y0133899D01*
X0109400Y0134000D01*
X0104600Y0134000D01*
X0104600Y0134600D01*
X0109400Y0134600D01*
X0109400Y0134701D01*
X0109274Y0135494D01*
X0109026Y0136258D01*
X0108662Y0136973D01*
X0108190Y0137622D01*
X0107622Y0138190D01*
X0106973Y0138662D01*
X0106258Y0139026D01*
X0105494Y0139274D01*
X0104701Y0139400D01*
X0104600Y0139400D01*
X0104600Y0134600D01*
X0104000Y0134600D01*
X0104000Y0139400D01*
X0103899Y0139400D01*
X0103106Y0139274D01*
X0102342Y0139026D01*
X0101627Y0138662D01*
X0100978Y0138190D01*
X0100410Y0137622D01*
X0099938Y0136973D01*
X0099574Y0136258D01*
X0099326Y0135494D01*
X0099200Y0134701D01*
X0099200Y0134600D01*
X0104000Y0134600D01*
X0104000Y0134000D01*
X0099200Y0134000D01*
X0099200Y0133899D01*
X0099326Y0133106D01*
X0099574Y0132342D01*
X0099938Y0131627D01*
X0100143Y0131345D01*
X0099712Y0131167D01*
X0097433Y0128888D01*
X0096200Y0125911D01*
X0096200Y0122689D01*
X0097433Y0119712D01*
X0097845Y0119300D01*
X0097433Y0118888D01*
X0096200Y0115911D01*
X0096200Y0112689D01*
X0097433Y0109712D01*
X0097845Y0109300D01*
X0097433Y0108888D01*
X0096200Y0105911D01*
X0096200Y0102689D01*
X0097433Y0099712D01*
X0097845Y0099300D01*
X0097433Y0098888D01*
X0096200Y0095911D01*
X0096200Y0092689D01*
X0097433Y0089712D01*
X0097845Y0089300D01*
X0097433Y0088888D01*
X0096200Y0085911D01*
X0096200Y0082689D01*
X0097433Y0079712D01*
X0097845Y0079300D01*
X0097433Y0078888D01*
X0096200Y0075911D01*
X0096200Y0072689D01*
X0097433Y0069712D01*
X0097845Y0069300D01*
X0097433Y0068888D01*
X0096200Y0065911D01*
X0096200Y0062689D01*
X0097433Y0059712D01*
X0097845Y0059300D01*
X0097433Y0058888D01*
X0096200Y0055911D01*
X0096200Y0052689D01*
X0097433Y0049712D01*
X0097845Y0049300D01*
X0097433Y0048888D01*
X0096200Y0045911D01*
X0096200Y0042689D01*
X0097433Y0039712D01*
X0099712Y0037433D01*
X0102689Y0036200D01*
X0105911Y0036200D01*
X0108888Y0037433D01*
X0111167Y0039712D01*
X0112400Y0042689D01*
X0112400Y0045911D01*
X0111167Y0048888D01*
X0110755Y0049300D01*
X0111167Y0049712D01*
X0112400Y0052689D01*
X0112400Y0055911D01*
X0111167Y0058888D01*
X0110755Y0059300D01*
X0111167Y0059712D01*
X0112400Y0062689D01*
X0112400Y0065911D01*
X0111167Y0068888D01*
X0110755Y0069300D01*
X0111167Y0069712D01*
X0112400Y0072689D01*
X0112400Y0075911D01*
X0111167Y0078888D01*
X0110755Y0079300D01*
X0111167Y0079712D01*
X0112400Y0082689D01*
X0112400Y0085911D01*
X0111167Y0088888D01*
X0110755Y0089300D01*
X0111167Y0089712D01*
X0112400Y0092689D01*
X0112400Y0095911D01*
X0112400Y0094514D02*
X0134048Y0094514D01*
X0132450Y0092915D02*
X0112400Y0092915D01*
X0111832Y0091317D02*
X0131900Y0091317D01*
X0131900Y0089718D02*
X0111169Y0089718D01*
X0111485Y0088120D02*
X0131900Y0088120D01*
X0131900Y0086521D02*
X0112147Y0086521D01*
X0112400Y0084923D02*
X0133212Y0084923D01*
X0134811Y0083324D02*
X0112400Y0083324D01*
X0112001Y0081726D02*
X0181201Y0081726D01*
X0181201Y0083324D02*
X0163789Y0083324D01*
X0165388Y0084923D02*
X0181201Y0084923D01*
X0181201Y0086521D02*
X0166700Y0086521D01*
X0166700Y0088120D02*
X0181201Y0088120D01*
X0181201Y0089718D02*
X0166700Y0089718D01*
X0166700Y0091317D02*
X0181201Y0091317D01*
X0181201Y0092915D02*
X0166150Y0092915D01*
X0164552Y0094514D02*
X0181201Y0094514D01*
X0181201Y0096112D02*
X0162953Y0096112D01*
X0157593Y0101350D02*
X0162250Y0106007D01*
X0162250Y0112593D01*
X0157593Y0117250D01*
X0151007Y0117250D01*
X0146350Y0112593D01*
X0146350Y0106007D01*
X0151007Y0101350D01*
X0157593Y0101350D01*
X0158749Y0102506D02*
X0181201Y0102506D01*
X0181201Y0100908D02*
X0111662Y0100908D01*
X0112324Y0102506D02*
X0149851Y0102506D01*
X0148252Y0104105D02*
X0112400Y0104105D01*
X0112400Y0105703D02*
X0130896Y0105703D01*
X0132250Y0104350D02*
X0134300Y0104350D01*
X0136350Y0104350D01*
X0139250Y0107250D01*
X0139250Y0109300D01*
X0139250Y0111350D01*
X0136350Y0114250D01*
X0134300Y0114250D01*
X0134300Y0109300D01*
X0139250Y0109300D01*
X0134300Y0109300D01*
X0134300Y0109300D01*
X0134300Y0109300D01*
X0134300Y0104350D01*
X0134300Y0109300D01*
X0134300Y0109300D01*
X0134300Y0109300D01*
X0129350Y0109300D01*
X0129350Y0111350D01*
X0132250Y0114250D01*
X0134300Y0114250D01*
X0134300Y0109300D01*
X0129350Y0109300D01*
X0129350Y0107250D01*
X0132250Y0104350D01*
X0134300Y0105703D02*
X0134300Y0105703D01*
X0134300Y0107302D02*
X0134300Y0107302D01*
X0134300Y0108900D02*
X0134300Y0108900D01*
X0134300Y0110499D02*
X0134300Y0110499D01*
X0134300Y0112097D02*
X0134300Y0112097D01*
X0134300Y0113696D02*
X0134300Y0113696D01*
X0136905Y0113696D02*
X0147453Y0113696D01*
X0146350Y0112097D02*
X0138503Y0112097D01*
X0139250Y0110499D02*
X0146350Y0110499D01*
X0146350Y0108900D02*
X0139250Y0108900D01*
X0139250Y0107302D02*
X0146350Y0107302D01*
X0146654Y0105703D02*
X0137704Y0105703D01*
X0131695Y0113696D02*
X0112400Y0113696D01*
X0112400Y0115294D02*
X0149051Y0115294D01*
X0150650Y0116893D02*
X0111993Y0116893D01*
X0111331Y0118491D02*
X0181201Y0118491D01*
X0181201Y0116893D02*
X0157950Y0116893D01*
X0159549Y0115294D02*
X0181201Y0115294D01*
X0181201Y0113696D02*
X0161147Y0113696D01*
X0162250Y0112097D02*
X0181201Y0112097D01*
X0181201Y0110499D02*
X0162250Y0110499D01*
X0162250Y0108900D02*
X0181201Y0108900D01*
X0181201Y0107302D02*
X0162250Y0107302D01*
X0161946Y0105703D02*
X0181201Y0105703D01*
X0181201Y0104105D02*
X0160348Y0104105D01*
X0154752Y0120700D02*
X0151648Y0120700D01*
X0148782Y0121887D01*
X0146587Y0124082D01*
X0145400Y0126948D01*
X0145400Y0136052D01*
X0146587Y0138918D01*
X0148782Y0141113D01*
X0151648Y0142300D01*
X0154752Y0142300D01*
X0157618Y0141113D01*
X0159813Y0138918D01*
X0161000Y0136052D01*
X0161000Y0126948D01*
X0159813Y0124082D01*
X0157618Y0121887D01*
X0154752Y0120700D01*
X0157138Y0121688D02*
X0181201Y0121688D01*
X0181201Y0120090D02*
X0111323Y0120090D01*
X0111986Y0121688D02*
X0149262Y0121688D01*
X0147382Y0123287D02*
X0112400Y0123287D01*
X0112400Y0124885D02*
X0132226Y0124885D01*
X0132273Y0124839D02*
X0132884Y0124395D01*
X0133557Y0124052D01*
X0134276Y0123818D01*
X0135022Y0123700D01*
X0135200Y0123700D01*
X0135200Y0131300D01*
X0135600Y0131300D01*
X0135600Y0131700D01*
X0140200Y0131700D01*
X0140200Y0134878D01*
X0140082Y0135624D01*
X0139848Y0136343D01*
X0139505Y0137016D01*
X0139061Y0137627D01*
X0138527Y0138161D01*
X0137916Y0138605D01*
X0137243Y0138948D01*
X0136524Y0139182D01*
X0135778Y0139300D01*
X0135600Y0139300D01*
X0135600Y0131700D01*
X0135200Y0131700D01*
X0135200Y0139300D01*
X0135022Y0139300D01*
X0134276Y0139182D01*
X0133557Y0138948D01*
X0132884Y0138605D01*
X0132273Y0138161D01*
X0131739Y0137627D01*
X0131295Y0137016D01*
X0130952Y0136343D01*
X0130718Y0135624D01*
X0130600Y0134878D01*
X0130600Y0131700D01*
X0135200Y0131700D01*
X0135200Y0131300D01*
X0130600Y0131300D01*
X0130600Y0128122D01*
X0130718Y0127376D01*
X0130952Y0126657D01*
X0131295Y0125984D01*
X0131739Y0125373D01*
X0132273Y0124839D01*
X0131040Y0126484D02*
X0112163Y0126484D01*
X0111501Y0128082D02*
X0130606Y0128082D01*
X0130600Y0129681D02*
X0110374Y0129681D01*
X0108616Y0131279D02*
X0130600Y0131279D01*
X0130600Y0132878D02*
X0109200Y0132878D01*
X0109086Y0136075D02*
X0130865Y0136075D01*
X0130600Y0134476D02*
X0104600Y0134476D01*
X0104000Y0134476D02*
X0082400Y0134476D01*
X0082400Y0132878D02*
X0099400Y0132878D01*
X0099984Y0131279D02*
X0082400Y0131279D01*
X0082400Y0130045D02*
X0081669Y0128281D01*
X0081492Y0128104D01*
X0082400Y0125911D01*
X0082400Y0122689D01*
X0081167Y0119712D01*
X0080755Y0119300D01*
X0081167Y0118888D01*
X0082400Y0115911D01*
X0082400Y0112689D01*
X0081167Y0109712D01*
X0080755Y0109300D01*
X0081167Y0108888D01*
X0082400Y0105911D01*
X0082400Y0102689D01*
X0081167Y0099712D01*
X0080755Y0099300D01*
X0081167Y0098888D01*
X0082400Y0095911D01*
X0082400Y0092689D01*
X0081167Y0089712D01*
X0080755Y0089300D01*
X0081167Y0088888D01*
X0082400Y0085911D01*
X0082400Y0082689D01*
X0081167Y0079712D01*
X0080755Y0079300D01*
X0081167Y0078888D01*
X0082400Y0075911D01*
X0082400Y0072689D01*
X0081167Y0069712D01*
X0080755Y0069300D01*
X0081167Y0068888D01*
X0082400Y0065911D01*
X0082400Y0062689D01*
X0081167Y0059712D01*
X0080755Y0059300D01*
X0081167Y0058888D01*
X0082400Y0055911D01*
X0082400Y0052689D01*
X0081167Y0049712D01*
X0080755Y0049300D01*
X0081167Y0048888D01*
X0082400Y0045911D01*
X0082400Y0042689D01*
X0081167Y0039712D01*
X0078888Y0037433D01*
X0075911Y0036200D01*
X0072689Y0036200D01*
X0069712Y0037433D01*
X0067433Y0039712D01*
X0066200Y0042689D01*
X0066200Y0045911D01*
X0067433Y0048888D01*
X0067845Y0049300D01*
X0067433Y0049712D01*
X0066200Y0052689D01*
X0066200Y0055911D01*
X0067433Y0058888D01*
X0067845Y0059300D01*
X0067433Y0059712D01*
X0066200Y0062689D01*
X0066200Y0065911D01*
X0067433Y0068888D01*
X0067845Y0069300D01*
X0067433Y0069712D01*
X0066200Y0072689D01*
X0066200Y0075911D01*
X0067433Y0078888D01*
X0067845Y0079300D01*
X0067433Y0079712D01*
X0066200Y0082689D01*
X0066200Y0085911D01*
X0067433Y0088888D01*
X0067845Y0089300D01*
X0067433Y0089712D01*
X0066200Y0092689D01*
X0066200Y0095911D01*
X0067433Y0098888D01*
X0067845Y0099300D01*
X0067433Y0099712D01*
X0066200Y0102689D01*
X0066200Y0105911D01*
X0067433Y0108888D01*
X0067845Y0109300D01*
X0067433Y0109712D01*
X0066200Y0112689D01*
X0066200Y0115911D01*
X0067433Y0118888D01*
X0067845Y0119300D01*
X0067433Y0119712D01*
X0066200Y0122689D01*
X0066200Y0125911D01*
X0067108Y0128104D01*
X0066931Y0128281D01*
X0066200Y0130045D01*
X0066200Y0138555D01*
X0066931Y0140319D01*
X0068281Y0141669D01*
X0070045Y0142400D01*
X0078555Y0142400D01*
X0080319Y0141669D01*
X0081669Y0140319D01*
X0082400Y0138555D01*
X0082400Y0130045D01*
X0082249Y0129681D02*
X0098226Y0129681D01*
X0097099Y0128082D02*
X0081501Y0128082D01*
X0082163Y0126484D02*
X0096437Y0126484D01*
X0096200Y0124885D02*
X0082400Y0124885D01*
X0082400Y0123287D02*
X0096200Y0123287D01*
X0096614Y0121688D02*
X0081986Y0121688D01*
X0081323Y0120090D02*
X0097277Y0120090D01*
X0097269Y0118491D02*
X0081331Y0118491D01*
X0081993Y0116893D02*
X0096607Y0116893D01*
X0096200Y0115294D02*
X0082400Y0115294D01*
X0082400Y0113696D02*
X0096200Y0113696D01*
X0096445Y0112097D02*
X0082155Y0112097D01*
X0081493Y0110499D02*
X0097107Y0110499D01*
X0097445Y0108900D02*
X0081155Y0108900D01*
X0081824Y0107302D02*
X0096776Y0107302D01*
X0096200Y0105703D02*
X0082400Y0105703D01*
X0082400Y0104105D02*
X0096200Y0104105D01*
X0096276Y0102506D02*
X0082324Y0102506D01*
X0081662Y0100908D02*
X0096938Y0100908D01*
X0097836Y0099309D02*
X0080764Y0099309D01*
X0081655Y0097711D02*
X0096945Y0097711D01*
X0096283Y0096112D02*
X0082317Y0096112D01*
X0082400Y0094514D02*
X0096200Y0094514D01*
X0096200Y0092915D02*
X0082400Y0092915D01*
X0081832Y0091317D02*
X0096768Y0091317D01*
X0097430Y0089718D02*
X0081169Y0089718D01*
X0081485Y0088120D02*
X0097115Y0088120D01*
X0096453Y0086521D02*
X0082147Y0086521D01*
X0082400Y0084923D02*
X0096200Y0084923D01*
X0096200Y0083324D02*
X0082400Y0083324D01*
X0082001Y0081726D02*
X0096599Y0081726D01*
X0097261Y0080127D02*
X0081339Y0080127D01*
X0081316Y0078529D02*
X0097284Y0078529D01*
X0096622Y0076930D02*
X0081978Y0076930D01*
X0082400Y0075332D02*
X0096200Y0075332D01*
X0096200Y0073733D02*
X0082400Y0073733D01*
X0082170Y0072134D02*
X0096430Y0072134D01*
X0097092Y0070536D02*
X0081508Y0070536D01*
X0081118Y0068937D02*
X0097482Y0068937D01*
X0096791Y0067339D02*
X0081809Y0067339D01*
X0082400Y0065740D02*
X0096200Y0065740D01*
X0096200Y0064142D02*
X0082400Y0064142D01*
X0082340Y0062543D02*
X0096260Y0062543D01*
X0096922Y0060945D02*
X0081678Y0060945D01*
X0080802Y0059346D02*
X0097798Y0059346D01*
X0096961Y0057748D02*
X0081639Y0057748D01*
X0082301Y0056149D02*
X0096299Y0056149D01*
X0096200Y0054551D02*
X0082400Y0054551D01*
X0082400Y0052952D02*
X0096200Y0052952D01*
X0096753Y0051354D02*
X0081847Y0051354D01*
X0081185Y0049755D02*
X0097415Y0049755D01*
X0097130Y0048157D02*
X0081470Y0048157D01*
X0082132Y0046558D02*
X0096468Y0046558D01*
X0096200Y0044960D02*
X0082400Y0044960D01*
X0082400Y0043361D02*
X0096200Y0043361D01*
X0096584Y0041763D02*
X0082016Y0041763D01*
X0081354Y0040164D02*
X0097246Y0040164D01*
X0098579Y0038566D02*
X0080021Y0038566D01*
X0077763Y0036967D02*
X0100836Y0036967D01*
X0107763Y0036967D02*
X0133962Y0036967D01*
X0133500Y0035369D02*
X0006600Y0035369D01*
X0006600Y0036967D02*
X0070836Y0036967D01*
X0068579Y0038566D02*
X0006600Y0038566D01*
X0006600Y0040164D02*
X0067246Y0040164D01*
X0066584Y0041763D02*
X0006600Y0041763D01*
X0006600Y0043361D02*
X0066200Y0043361D01*
X0066200Y0044960D02*
X0006600Y0044960D01*
X0006600Y0046558D02*
X0066468Y0046558D01*
X0067130Y0048157D02*
X0006600Y0048157D01*
X0006600Y0049755D02*
X0067415Y0049755D01*
X0066753Y0051354D02*
X0006600Y0051354D01*
X0006600Y0052952D02*
X0066200Y0052952D01*
X0066200Y0054551D02*
X0006600Y0054551D01*
X0006600Y0056149D02*
X0066299Y0056149D01*
X0066961Y0057748D02*
X0006600Y0057748D01*
X0006600Y0059346D02*
X0067798Y0059346D01*
X0066922Y0060945D02*
X0006600Y0060945D01*
X0006600Y0062543D02*
X0066260Y0062543D01*
X0066200Y0064142D02*
X0006600Y0064142D01*
X0006600Y0065740D02*
X0066200Y0065740D01*
X0066791Y0067339D02*
X0006600Y0067339D01*
X0006600Y0068937D02*
X0067482Y0068937D01*
X0067092Y0070536D02*
X0006600Y0070536D01*
X0006600Y0072134D02*
X0066430Y0072134D01*
X0066200Y0073733D02*
X0006600Y0073733D01*
X0006600Y0075332D02*
X0066200Y0075332D01*
X0066622Y0076930D02*
X0006600Y0076930D01*
X0006600Y0078529D02*
X0067284Y0078529D01*
X0067261Y0080127D02*
X0006600Y0080127D01*
X0006600Y0081726D02*
X0066599Y0081726D01*
X0066200Y0083324D02*
X0006600Y0083324D01*
X0006600Y0084923D02*
X0019318Y0084923D01*
X0019457Y0084852D02*
X0020176Y0084618D01*
X0020922Y0084500D01*
X0024100Y0084500D01*
X0024100Y0089100D01*
X0024500Y0089100D01*
X0024500Y0089500D01*
X0032100Y0089500D01*
X0032100Y0089678D01*
X0031982Y0090424D01*
X0031748Y0091143D01*
X0031405Y0091816D01*
X0030991Y0092386D01*
X0031718Y0092687D01*
X0033913Y0094882D01*
X0035100Y0097748D01*
X0035100Y0100852D01*
X0033913Y0103718D01*
X0033331Y0104300D01*
X0033913Y0104882D01*
X0035100Y0107748D01*
X0035100Y0110852D01*
X0033913Y0113718D01*
X0033331Y0114300D01*
X0033913Y0114882D01*
X0035100Y0117748D01*
X0035100Y0120852D01*
X0033913Y0123718D01*
X0033331Y0124300D01*
X0033913Y0124882D01*
X0035100Y0127748D01*
X0035100Y0130852D01*
X0033913Y0133718D01*
X0033331Y0134300D01*
X0033913Y0134882D01*
X0035100Y0137748D01*
X0035100Y0140852D01*
X0033913Y0143718D01*
X0033331Y0144300D01*
X0033913Y0144882D01*
X0035100Y0147748D01*
X0035100Y0150852D01*
X0033913Y0153718D01*
X0031718Y0155913D01*
X0028852Y0157100D01*
X0019748Y0157100D01*
X0016882Y0155913D01*
X0014687Y0153718D01*
X0013500Y0150852D01*
X0013500Y0147748D01*
X0014687Y0144882D01*
X0015269Y0144300D01*
X0014687Y0143718D01*
X0013500Y0140852D01*
X0013500Y0137748D01*
X0014687Y0134882D01*
X0015269Y0134300D01*
X0014687Y0133718D01*
X0013500Y0130852D01*
X0013500Y0127748D01*
X0014687Y0124882D01*
X0015269Y0124300D01*
X0014687Y0123718D01*
X0013500Y0120852D01*
X0013500Y0117748D01*
X0014687Y0114882D01*
X0015269Y0114300D01*
X0014687Y0113718D01*
X0013500Y0110852D01*
X0013500Y0107748D01*
X0014687Y0104882D01*
X0015269Y0104300D01*
X0014687Y0103718D01*
X0013500Y0100852D01*
X0013500Y0097748D01*
X0014687Y0094882D01*
X0016882Y0092687D01*
X0017609Y0092386D01*
X0017195Y0091816D01*
X0016852Y0091143D01*
X0016618Y0090424D01*
X0016500Y0089678D01*
X0016500Y0089500D01*
X0024100Y0089500D01*
X0024100Y0089100D01*
X0016500Y0089100D01*
X0016500Y0088922D01*
X0016618Y0088176D01*
X0016852Y0087457D01*
X0017195Y0086784D01*
X0017639Y0086173D01*
X0018173Y0085639D01*
X0018784Y0085195D01*
X0019457Y0084852D01*
X0017386Y0086521D02*
X0006600Y0086521D01*
X0006600Y0088120D02*
X0016637Y0088120D01*
X0016506Y0089718D02*
X0006600Y0089718D01*
X0006600Y0091317D02*
X0016940Y0091317D01*
X0016654Y0092915D02*
X0006600Y0092915D01*
X0006600Y0094514D02*
X0015055Y0094514D01*
X0014178Y0096112D02*
X0006600Y0096112D01*
X0006600Y0097711D02*
X0013516Y0097711D01*
X0013500Y0099309D02*
X0006600Y0099309D01*
X0006600Y0100908D02*
X0013523Y0100908D01*
X0014185Y0102506D02*
X0006600Y0102506D01*
X0006600Y0104105D02*
X0015074Y0104105D01*
X0014347Y0105703D02*
X0006600Y0105703D01*
X0006600Y0107302D02*
X0013685Y0107302D01*
X0013500Y0108900D02*
X0006600Y0108900D01*
X0006600Y0110499D02*
X0013500Y0110499D01*
X0014016Y0112097D02*
X0006600Y0112097D01*
X0006600Y0113696D02*
X0014678Y0113696D01*
X0014517Y0115294D02*
X0006600Y0115294D01*
X0006600Y0116893D02*
X0013854Y0116893D01*
X0013500Y0118491D02*
X0006600Y0118491D01*
X0006600Y0120090D02*
X0013500Y0120090D01*
X0013847Y0121688D02*
X0006600Y0121688D01*
X0006600Y0123287D02*
X0014509Y0123287D01*
X0014686Y0124885D02*
X0006600Y0124885D01*
X0006600Y0126484D02*
X0014024Y0126484D01*
X0013500Y0128082D02*
X0006600Y0128082D01*
X0006600Y0129681D02*
X0013500Y0129681D01*
X0013677Y0131279D02*
X0006600Y0131279D01*
X0006600Y0132878D02*
X0014339Y0132878D01*
X0015093Y0134476D02*
X0006600Y0134476D01*
X0006600Y0136075D02*
X0014193Y0136075D01*
X0013531Y0137673D02*
X0006600Y0137673D01*
X0006600Y0139272D02*
X0013500Y0139272D01*
X0013508Y0140870D02*
X0006600Y0140870D01*
X0006600Y0142469D02*
X0014170Y0142469D01*
X0015037Y0144068D02*
X0006600Y0144068D01*
X0006600Y0145666D02*
X0014363Y0145666D01*
X0013700Y0147265D02*
X0006600Y0147265D01*
X0006600Y0148863D02*
X0013500Y0148863D01*
X0013500Y0150462D02*
X0006600Y0150462D01*
X0006600Y0152060D02*
X0014001Y0152060D01*
X0014663Y0153659D02*
X0006600Y0153659D01*
X0006600Y0155257D02*
X0016226Y0155257D01*
X0019158Y0156856D02*
X0006600Y0156856D01*
X0006600Y0158454D02*
X0073903Y0158454D01*
X0075501Y0156856D02*
X0029442Y0156856D01*
X0032374Y0155257D02*
X0130600Y0155257D01*
X0130600Y0153722D02*
X0130718Y0152976D01*
X0130952Y0152257D01*
X0131295Y0151584D01*
X0131739Y0150973D01*
X0132273Y0150439D01*
X0132884Y0149995D01*
X0133557Y0149652D01*
X0134276Y0149418D01*
X0135022Y0149300D01*
X0135200Y0149300D01*
X0135200Y0156900D01*
X0135600Y0156900D01*
X0135600Y0157300D01*
X0140200Y0157300D01*
X0140200Y0160478D01*
X0140082Y0161224D01*
X0139848Y0161943D01*
X0139505Y0162616D01*
X0139061Y0163227D01*
X0138527Y0163761D01*
X0137916Y0164205D01*
X0137243Y0164548D01*
X0136524Y0164782D01*
X0135778Y0164900D01*
X0135600Y0164900D01*
X0135600Y0157300D01*
X0135200Y0157300D01*
X0135200Y0164900D01*
X0135022Y0164900D01*
X0134276Y0164782D01*
X0133557Y0164548D01*
X0132884Y0164205D01*
X0132273Y0163761D01*
X0131739Y0163227D01*
X0131295Y0162616D01*
X0130952Y0161943D01*
X0130718Y0161224D01*
X0130600Y0160478D01*
X0130600Y0157300D01*
X0135200Y0157300D01*
X0135200Y0156900D01*
X0130600Y0156900D01*
X0130600Y0153722D01*
X0130610Y0153659D02*
X0033937Y0153659D01*
X0034599Y0152060D02*
X0131052Y0152060D01*
X0132250Y0150462D02*
X0035100Y0150462D01*
X0035100Y0148863D02*
X0147406Y0148863D01*
X0146587Y0149682D02*
X0148782Y0147487D01*
X0151648Y0146300D01*
X0154752Y0146300D01*
X0157618Y0147487D01*
X0159813Y0149682D01*
X0161000Y0152548D01*
X0161000Y0161652D01*
X0159813Y0164518D01*
X0157618Y0166713D01*
X0154752Y0167900D01*
X0151648Y0167900D01*
X0148782Y0166713D01*
X0146587Y0164518D01*
X0145400Y0161652D01*
X0145400Y0152548D01*
X0146587Y0149682D01*
X0146264Y0150462D02*
X0138550Y0150462D01*
X0138527Y0150439D02*
X0139061Y0150973D01*
X0139505Y0151584D01*
X0139848Y0152257D01*
X0140082Y0152976D01*
X0140200Y0153722D01*
X0140200Y0156900D01*
X0135600Y0156900D01*
X0135600Y0149300D01*
X0135778Y0149300D01*
X0136524Y0149418D01*
X0137243Y0149652D01*
X0137916Y0149995D01*
X0138527Y0150439D01*
X0139748Y0152060D02*
X0145602Y0152060D01*
X0145400Y0153659D02*
X0140190Y0153659D01*
X0140200Y0155257D02*
X0145400Y0155257D01*
X0145400Y0156856D02*
X0140200Y0156856D01*
X0140200Y0158454D02*
X0145400Y0158454D01*
X0145400Y0160053D02*
X0140200Y0160053D01*
X0139943Y0161651D02*
X0145400Y0161651D01*
X0146062Y0163250D02*
X0139039Y0163250D01*
X0136105Y0164848D02*
X0146917Y0164848D01*
X0148516Y0166447D02*
X0104154Y0166447D01*
X0104250Y0166350D02*
X0101350Y0169250D01*
X0099300Y0169250D01*
X0099300Y0164300D01*
X0104250Y0164300D01*
X0104250Y0166350D01*
X0104250Y0164848D02*
X0134695Y0164848D01*
X0135200Y0164848D02*
X0135600Y0164848D01*
X0135600Y0163250D02*
X0135200Y0163250D01*
X0135200Y0161651D02*
X0135600Y0161651D01*
X0135600Y0160053D02*
X0135200Y0160053D01*
X0135200Y0158454D02*
X0135600Y0158454D01*
X0135600Y0156856D02*
X0135200Y0156856D01*
X0135200Y0155257D02*
X0135600Y0155257D01*
X0135600Y0153659D02*
X0135200Y0153659D01*
X0135200Y0152060D02*
X0135600Y0152060D01*
X0135600Y0150462D02*
X0135200Y0150462D01*
X0130600Y0156856D02*
X0083099Y0156856D01*
X0082593Y0156350D02*
X0087250Y0161007D01*
X0087250Y0167593D01*
X0082593Y0172250D01*
X0076007Y0172250D01*
X0071350Y0167593D01*
X0071350Y0161007D01*
X0076007Y0156350D01*
X0082593Y0156350D01*
X0084697Y0158454D02*
X0130600Y0158454D01*
X0130600Y0160053D02*
X0102053Y0160053D01*
X0101350Y0159350D02*
X0104250Y0162250D01*
X0104250Y0164300D01*
X0099300Y0164300D01*
X0099300Y0164300D01*
X0099300Y0164300D01*
X0099300Y0159350D01*
X0101350Y0159350D01*
X0099300Y0159350D02*
X0099300Y0164300D01*
X0099300Y0164300D01*
X0099300Y0164300D01*
X0094350Y0164300D01*
X0094350Y0166350D01*
X0097250Y0169250D01*
X0099300Y0169250D01*
X0099300Y0164300D01*
X0094350Y0164300D01*
X0094350Y0162250D01*
X0097250Y0159350D01*
X0099300Y0159350D01*
X0099300Y0160053D02*
X0099300Y0160053D01*
X0099300Y0161651D02*
X0099300Y0161651D01*
X0099300Y0163250D02*
X0099300Y0163250D01*
X0099300Y0164848D02*
X0099300Y0164848D01*
X0099300Y0166447D02*
X0099300Y0166447D01*
X0099300Y0168045D02*
X0099300Y0168045D01*
X0102555Y0168045D02*
X0181201Y0168045D01*
X0181201Y0166447D02*
X0157884Y0166447D01*
X0159483Y0164848D02*
X0181201Y0164848D01*
X0181201Y0163250D02*
X0160338Y0163250D01*
X0161000Y0161651D02*
X0181201Y0161651D01*
X0181201Y0160053D02*
X0161000Y0160053D01*
X0161000Y0158454D02*
X0181201Y0158454D01*
X0181201Y0156856D02*
X0161000Y0156856D01*
X0161000Y0155257D02*
X0181201Y0155257D01*
X0181201Y0153659D02*
X0161000Y0153659D01*
X0160798Y0152060D02*
X0181201Y0152060D01*
X0181201Y0150462D02*
X0160136Y0150462D01*
X0158994Y0148863D02*
X0181201Y0148863D01*
X0181201Y0147265D02*
X0157080Y0147265D01*
X0157860Y0140870D02*
X0181201Y0140870D01*
X0181201Y0139272D02*
X0159459Y0139272D01*
X0160328Y0137673D02*
X0181201Y0137673D01*
X0181201Y0136075D02*
X0160990Y0136075D01*
X0161000Y0134476D02*
X0181201Y0134476D01*
X0181201Y0132878D02*
X0161000Y0132878D01*
X0161000Y0131279D02*
X0181201Y0131279D01*
X0181201Y0129681D02*
X0161000Y0129681D01*
X0161000Y0128082D02*
X0181201Y0128082D01*
X0181201Y0126484D02*
X0160808Y0126484D01*
X0160145Y0124885D02*
X0181201Y0124885D01*
X0181201Y0123287D02*
X0159018Y0123287D01*
X0146255Y0124885D02*
X0138574Y0124885D01*
X0138527Y0124839D02*
X0139061Y0125373D01*
X0139505Y0125984D01*
X0139848Y0126657D01*
X0140082Y0127376D01*
X0140200Y0128122D01*
X0140200Y0131300D01*
X0135600Y0131300D01*
X0135600Y0123700D01*
X0135778Y0123700D01*
X0136524Y0123818D01*
X0137243Y0124052D01*
X0137916Y0124395D01*
X0138527Y0124839D01*
X0139760Y0126484D02*
X0145592Y0126484D01*
X0145400Y0128082D02*
X0140194Y0128082D01*
X0140200Y0129681D02*
X0145400Y0129681D01*
X0145400Y0131279D02*
X0140200Y0131279D01*
X0140200Y0132878D02*
X0145400Y0132878D01*
X0145400Y0134476D02*
X0140200Y0134476D01*
X0139935Y0136075D02*
X0145410Y0136075D01*
X0146072Y0137673D02*
X0139015Y0137673D01*
X0135955Y0139272D02*
X0146941Y0139272D01*
X0148540Y0140870D02*
X0081118Y0140870D01*
X0082103Y0139272D02*
X0103098Y0139272D01*
X0104000Y0139272D02*
X0104600Y0139272D01*
X0105502Y0139272D02*
X0134845Y0139272D01*
X0135200Y0139272D02*
X0135600Y0139272D01*
X0135600Y0137673D02*
X0135200Y0137673D01*
X0135200Y0136075D02*
X0135600Y0136075D01*
X0135600Y0134476D02*
X0135200Y0134476D01*
X0135200Y0132878D02*
X0135600Y0132878D01*
X0135600Y0131279D02*
X0135200Y0131279D01*
X0135200Y0129681D02*
X0135600Y0129681D01*
X0135600Y0128082D02*
X0135200Y0128082D01*
X0135200Y0126484D02*
X0135600Y0126484D01*
X0135600Y0124885D02*
X0135200Y0124885D01*
X0131785Y0137673D02*
X0108139Y0137673D01*
X0104600Y0137673D02*
X0104000Y0137673D01*
X0104000Y0136075D02*
X0104600Y0136075D01*
X0100461Y0137673D02*
X0082400Y0137673D01*
X0082400Y0136075D02*
X0099514Y0136075D01*
X0096547Y0160053D02*
X0086296Y0160053D01*
X0087250Y0161651D02*
X0094949Y0161651D01*
X0094350Y0163250D02*
X0087250Y0163250D01*
X0087250Y0164848D02*
X0094350Y0164848D01*
X0094446Y0166447D02*
X0087250Y0166447D01*
X0086798Y0168045D02*
X0096045Y0168045D01*
X0103651Y0161651D02*
X0130857Y0161651D01*
X0131761Y0163250D02*
X0104250Y0163250D01*
X0085199Y0169644D02*
X0181201Y0169644D01*
X0181201Y0171242D02*
X0083601Y0171242D01*
X0074999Y0171242D02*
X0006600Y0171242D01*
X0006600Y0169644D02*
X0073401Y0169644D01*
X0071802Y0168045D02*
X0006600Y0168045D01*
X0006600Y0166447D02*
X0071350Y0166447D01*
X0071350Y0164848D02*
X0006600Y0164848D01*
X0006600Y0163250D02*
X0071350Y0163250D01*
X0071350Y0161651D02*
X0006600Y0161651D01*
X0006600Y0160053D02*
X0072304Y0160053D01*
X0067482Y0140870D02*
X0035092Y0140870D01*
X0035100Y0139272D02*
X0066497Y0139272D01*
X0066200Y0137673D02*
X0035069Y0137673D01*
X0034407Y0136075D02*
X0066200Y0136075D01*
X0066200Y0134476D02*
X0033507Y0134476D01*
X0034261Y0132878D02*
X0066200Y0132878D01*
X0066200Y0131279D02*
X0034923Y0131279D01*
X0035100Y0129681D02*
X0066351Y0129681D01*
X0067099Y0128082D02*
X0035100Y0128082D01*
X0034576Y0126484D02*
X0066437Y0126484D01*
X0066200Y0124885D02*
X0033914Y0124885D01*
X0034091Y0123287D02*
X0066200Y0123287D01*
X0066614Y0121688D02*
X0034753Y0121688D01*
X0035100Y0120090D02*
X0067277Y0120090D01*
X0067269Y0118491D02*
X0035100Y0118491D01*
X0034746Y0116893D02*
X0066607Y0116893D01*
X0066200Y0115294D02*
X0034083Y0115294D01*
X0033922Y0113696D02*
X0066200Y0113696D01*
X0066445Y0112097D02*
X0034584Y0112097D01*
X0035100Y0110499D02*
X0067107Y0110499D01*
X0067445Y0108900D02*
X0035100Y0108900D01*
X0034915Y0107302D02*
X0066776Y0107302D01*
X0066200Y0105703D02*
X0034253Y0105703D01*
X0033526Y0104105D02*
X0066200Y0104105D01*
X0066276Y0102506D02*
X0034415Y0102506D01*
X0035077Y0100908D02*
X0066938Y0100908D01*
X0067836Y0099309D02*
X0035100Y0099309D01*
X0035084Y0097711D02*
X0066945Y0097711D01*
X0066283Y0096112D02*
X0034422Y0096112D01*
X0033545Y0094514D02*
X0066200Y0094514D01*
X0066200Y0092915D02*
X0031946Y0092915D01*
X0031660Y0091317D02*
X0066768Y0091317D01*
X0067430Y0089718D02*
X0032094Y0089718D01*
X0032100Y0089100D02*
X0024500Y0089100D01*
X0024500Y0084500D01*
X0027678Y0084500D01*
X0028424Y0084618D01*
X0029143Y0084852D01*
X0029816Y0085195D01*
X0030427Y0085639D01*
X0030961Y0086173D01*
X0031405Y0086784D01*
X0031748Y0087457D01*
X0031982Y0088176D01*
X0032100Y0088922D01*
X0032100Y0089100D01*
X0031963Y0088120D02*
X0067115Y0088120D01*
X0066453Y0086521D02*
X0031214Y0086521D01*
X0029282Y0084923D02*
X0066200Y0084923D01*
X0024500Y0084923D02*
X0024100Y0084923D01*
X0024100Y0086521D02*
X0024500Y0086521D01*
X0024500Y0088120D02*
X0024100Y0088120D01*
X0034430Y0142469D02*
X0181201Y0142469D01*
X0181201Y0144068D02*
X0033563Y0144068D01*
X0034237Y0145666D02*
X0181201Y0145666D01*
X0177207Y0172841D02*
X0011393Y0172841D01*
X0014011Y0174439D02*
X0174589Y0174439D01*
X0173325Y0176038D02*
X0015275Y0176038D01*
X0015937Y0177636D02*
X0172663Y0177636D01*
X0172531Y0179235D02*
X0016068Y0179235D01*
X0015991Y0180833D02*
X0172609Y0180833D01*
X0149320Y0147265D02*
X0034900Y0147265D01*
X0007207Y0172841D02*
X0006600Y0172841D01*
X0111155Y0108900D02*
X0129350Y0108900D01*
X0129350Y0107302D02*
X0111824Y0107302D01*
X0111493Y0110499D02*
X0129350Y0110499D01*
X0130097Y0112097D02*
X0112155Y0112097D01*
X0110764Y0099309D02*
X0181201Y0099309D01*
X0181201Y0097711D02*
X0111655Y0097711D01*
X0111339Y0080127D02*
X0181201Y0080127D01*
X0181201Y0078529D02*
X0111316Y0078529D01*
X0111978Y0076930D02*
X0181201Y0076930D01*
X0181201Y0075332D02*
X0112400Y0075332D01*
X0112400Y0073733D02*
X0181201Y0073733D01*
X0181201Y0072134D02*
X0112170Y0072134D01*
X0111508Y0070536D02*
X0136505Y0070536D01*
X0134907Y0068937D02*
X0111118Y0068937D01*
X0111809Y0067339D02*
X0134116Y0067339D01*
X0133500Y0065740D02*
X0112400Y0065740D01*
X0112400Y0064142D02*
X0133500Y0064142D01*
X0133585Y0062543D02*
X0112340Y0062543D01*
X0111678Y0060945D02*
X0134247Y0060945D01*
X0135223Y0059346D02*
X0110802Y0059346D01*
X0111639Y0057748D02*
X0134286Y0057748D01*
X0133623Y0056149D02*
X0112301Y0056149D01*
X0112400Y0054551D02*
X0133500Y0054551D01*
X0133500Y0052952D02*
X0112400Y0052952D01*
X0111847Y0051354D02*
X0134078Y0051354D01*
X0134814Y0049755D02*
X0111185Y0049755D01*
X0111470Y0048157D02*
X0134455Y0048157D01*
X0133793Y0046558D02*
X0112132Y0046558D01*
X0112400Y0044960D02*
X0133500Y0044960D01*
X0133500Y0043361D02*
X0112400Y0043361D01*
X0112016Y0041763D02*
X0133908Y0041763D01*
X0134570Y0040164D02*
X0111354Y0040164D01*
X0110021Y0038566D02*
X0134624Y0038566D01*
X0133500Y0033770D02*
X0006600Y0033770D01*
X0006600Y0032172D02*
X0133739Y0032172D01*
X0134401Y0030573D02*
X0006600Y0030573D01*
X0006600Y0028975D02*
X0134944Y0028975D01*
X0134132Y0027376D02*
X0006600Y0027376D01*
X0006600Y0025778D02*
X0133500Y0025778D01*
X0133500Y0024179D02*
X0006600Y0024179D01*
X0006600Y0022581D02*
X0133570Y0022581D01*
X0134232Y0020982D02*
X0006600Y0020982D01*
X0006600Y0019384D02*
X0135185Y0019384D01*
X0136784Y0017785D02*
X0006600Y0017785D01*
X0006600Y0016187D02*
X0136874Y0016187D01*
X0144100Y0012990D02*
X0144500Y0012990D01*
X0144500Y0011391D02*
X0144100Y0011391D01*
X0144100Y0009793D02*
X0144500Y0009793D01*
D16*
X0029300Y0029300D03*
X0029300Y0074300D03*
X0116800Y0149300D03*
M02*
