G75*
%MOIN*%
%OFA0B0*%
%FSLAX25Y25*%
%IPPOS*%
%LPD*%
%AMOC8*
5,1,8,0,0,1.08239X$1,22.5*
%
%ADD10OC8,0.06300*%
%ADD11OC8,0.05200*%
%ADD12C,0.06000*%
%ADD13R,0.06600X0.06600*%
%ADD14C,0.06600*%
%ADD15C,0.04000*%
%ADD16C,0.01600*%
%ADD17R,0.03962X0.03962*%
D10*
X0134300Y0109300D03*
X0154300Y0109300D03*
X0099300Y0164300D03*
X0079300Y0164300D03*
D11*
X0139300Y0089300D03*
X0159300Y0089300D03*
D12*
X0147300Y0064300D02*
X0141300Y0064300D01*
X0141300Y0054300D02*
X0147300Y0054300D01*
X0147300Y0044300D02*
X0141300Y0044300D01*
X0141300Y0034300D02*
X0147300Y0034300D01*
X0147300Y0024300D02*
X0141300Y0024300D01*
X0141300Y0014300D02*
X0147300Y0014300D01*
X0153200Y0128500D02*
X0153200Y0134500D01*
X0135400Y0134500D02*
X0135400Y0128500D01*
X0135400Y0154100D02*
X0135400Y0160100D01*
X0153200Y0160100D02*
X0153200Y0154100D01*
X0027300Y0149300D02*
X0021300Y0149300D01*
X0021300Y0139300D02*
X0027300Y0139300D01*
X0027300Y0129300D02*
X0021300Y0129300D01*
X0021300Y0119300D02*
X0027300Y0119300D01*
X0027300Y0109300D02*
X0021300Y0109300D01*
X0021300Y0099300D02*
X0027300Y0099300D01*
X0027300Y0089300D02*
X0021300Y0089300D01*
D13*
X0074300Y0134300D03*
D14*
X0074300Y0124300D03*
X0074300Y0114300D03*
X0074300Y0104300D03*
X0074300Y0094300D03*
X0074300Y0084300D03*
X0074300Y0074300D03*
X0074300Y0064300D03*
X0074300Y0054300D03*
X0074300Y0044300D03*
X0104300Y0044300D03*
X0104300Y0054300D03*
X0104300Y0064300D03*
X0104300Y0074300D03*
X0104300Y0084300D03*
X0104300Y0094300D03*
X0104300Y0104300D03*
X0104300Y0114300D03*
X0104300Y0124300D03*
X0104300Y0134300D03*
D15*
X0074300Y0134300D02*
X0074300Y0164300D01*
X0079300Y0164300D01*
X0091800Y0176800D01*
X0171800Y0176800D01*
X0171800Y0089300D01*
X0159300Y0089300D01*
X0144300Y0064300D01*
X0144300Y0054300D02*
X0136800Y0054300D01*
X0116800Y0074300D01*
X0104300Y0074300D01*
X0104300Y0084300D02*
X0100550Y0084300D01*
X0089300Y0073050D01*
X0089300Y0038050D01*
X0098050Y0029300D01*
X0110550Y0029300D01*
X0125550Y0044300D01*
X0144300Y0044300D01*
X0144300Y0034300D02*
X0129300Y0034300D01*
X0116800Y0021800D01*
X0059300Y0021800D01*
X0059300Y0074300D01*
X0074300Y0074300D01*
X0074300Y0084300D02*
X0061800Y0084300D01*
X0034300Y0109300D01*
X0024300Y0109300D01*
X0009300Y0109300D01*
X0009300Y0056800D01*
X0051800Y0056800D01*
X0051800Y0014300D01*
X0119300Y0014300D01*
X0129300Y0024300D01*
X0144300Y0024300D01*
X0139300Y0089300D02*
X0139300Y0094300D01*
X0141800Y0094300D01*
X0154300Y0109300D01*
X0154300Y0130550D01*
X0153200Y0131500D01*
X0153050Y0133050D01*
X0153050Y0156800D01*
X0153200Y0157100D01*
X0139300Y0094300D02*
X0104300Y0094300D01*
X0074300Y0104300D02*
X0054300Y0104300D01*
X0036800Y0119300D01*
X0024300Y0119300D01*
X0024300Y0129300D02*
X0039300Y0129300D01*
X0056800Y0114300D01*
X0074300Y0114300D01*
X0074300Y0124300D02*
X0061800Y0124300D01*
X0034300Y0149300D01*
X0024300Y0149300D01*
X0024300Y0139300D02*
X0009300Y0139300D01*
X0009300Y0164300D01*
X0074300Y0164300D01*
X0074300Y0134300D02*
X0071800Y0134300D01*
X0031800Y0099300D02*
X0059300Y0074300D01*
X0031800Y0099300D02*
X0024300Y0099300D01*
D16*
X0010646Y0016068D02*
X0013134Y0015038D01*
X0015038Y0013134D01*
X0016068Y0010646D01*
X0016068Y0007954D01*
X0015508Y0006600D01*
X0173092Y0006600D01*
X0172531Y0007954D01*
X0172531Y0010646D01*
X0173562Y0013134D01*
X0175466Y0015038D01*
X0177954Y0016068D01*
X0180646Y0016068D01*
X0181201Y0015839D01*
X0181201Y0172761D01*
X0180646Y0172531D01*
X0178600Y0172531D01*
X0178600Y0087947D01*
X0177565Y0085448D01*
X0175652Y0083535D01*
X0173153Y0082500D01*
X0163150Y0082500D01*
X0154308Y0067763D01*
X0155100Y0065852D01*
X0155100Y0062748D01*
X0153913Y0059882D01*
X0153331Y0059300D01*
X0153913Y0058718D01*
X0155100Y0055852D01*
X0155100Y0052748D01*
X0153913Y0049882D01*
X0153331Y0049300D01*
X0153913Y0048718D01*
X0155100Y0045852D01*
X0155100Y0042748D01*
X0153913Y0039882D01*
X0153331Y0039300D01*
X0153913Y0038718D01*
X0155100Y0035852D01*
X0155100Y0032748D01*
X0153913Y0029882D01*
X0153331Y0029300D01*
X0153913Y0028718D01*
X0155100Y0025852D01*
X0155100Y0022748D01*
X0153913Y0019882D01*
X0151718Y0017687D01*
X0150991Y0017386D01*
X0151405Y0016816D01*
X0151748Y0016143D01*
X0151982Y0015424D01*
X0152100Y0014678D01*
X0152100Y0014500D01*
X0144500Y0014500D01*
X0144500Y0014100D01*
X0152100Y0014100D01*
X0152100Y0013922D01*
X0151982Y0013176D01*
X0151748Y0012457D01*
X0151405Y0011784D01*
X0150961Y0011173D01*
X0150427Y0010639D01*
X0149816Y0010195D01*
X0149143Y0009852D01*
X0148424Y0009618D01*
X0147678Y0009500D01*
X0144500Y0009500D01*
X0144500Y0014100D01*
X0144100Y0014100D01*
X0144100Y0009500D01*
X0140922Y0009500D01*
X0140176Y0009618D01*
X0139457Y0009852D01*
X0138784Y0010195D01*
X0138173Y0010639D01*
X0137639Y0011173D01*
X0137195Y0011784D01*
X0136852Y0012457D01*
X0136618Y0013176D01*
X0136500Y0013922D01*
X0136500Y0014100D01*
X0144100Y0014100D01*
X0144100Y0014500D01*
X0136500Y0014500D01*
X0136500Y0014678D01*
X0136618Y0015424D01*
X0136852Y0016143D01*
X0137195Y0016816D01*
X0137609Y0017386D01*
X0137334Y0017500D01*
X0132117Y0017500D01*
X0123152Y0008535D01*
X0120653Y0007500D01*
X0050447Y0007500D01*
X0047948Y0008535D01*
X0046035Y0010448D01*
X0045000Y0012947D01*
X0045000Y0050000D01*
X0007947Y0050000D01*
X0006600Y0050558D01*
X0006600Y0015508D01*
X0007954Y0016068D01*
X0010646Y0016068D01*
X0013584Y0014588D02*
X0045000Y0014588D01*
X0045000Y0012990D02*
X0015098Y0012990D01*
X0015760Y0011391D02*
X0045645Y0011391D01*
X0046691Y0009793D02*
X0016068Y0009793D01*
X0016068Y0008194D02*
X0048772Y0008194D01*
X0045000Y0016187D02*
X0006600Y0016187D01*
X0006600Y0017785D02*
X0045000Y0017785D01*
X0045000Y0019384D02*
X0006600Y0019384D01*
X0006600Y0020982D02*
X0045000Y0020982D01*
X0045000Y0022581D02*
X0006600Y0022581D01*
X0006600Y0024179D02*
X0045000Y0024179D01*
X0045000Y0025778D02*
X0006600Y0025778D01*
X0006600Y0027376D02*
X0045000Y0027376D01*
X0045000Y0028975D02*
X0006600Y0028975D01*
X0006600Y0030573D02*
X0045000Y0030573D01*
X0045000Y0032172D02*
X0006600Y0032172D01*
X0006600Y0033770D02*
X0045000Y0033770D01*
X0045000Y0035369D02*
X0006600Y0035369D01*
X0006600Y0036967D02*
X0045000Y0036967D01*
X0045000Y0038566D02*
X0006600Y0038566D01*
X0006600Y0040164D02*
X0045000Y0040164D01*
X0045000Y0041763D02*
X0006600Y0041763D01*
X0006600Y0043361D02*
X0045000Y0043361D01*
X0045000Y0044960D02*
X0006600Y0044960D01*
X0006600Y0046558D02*
X0045000Y0046558D01*
X0045000Y0048157D02*
X0006600Y0048157D01*
X0006600Y0049755D02*
X0045000Y0049755D01*
X0050447Y0063600D02*
X0052500Y0063600D01*
X0052500Y0071292D01*
X0032070Y0089864D01*
X0032100Y0089678D01*
X0032100Y0089500D01*
X0024500Y0089500D01*
X0024500Y0089100D01*
X0032100Y0089100D01*
X0032100Y0088922D01*
X0031982Y0088176D01*
X0031748Y0087457D01*
X0031405Y0086784D01*
X0030961Y0086173D01*
X0030427Y0085639D01*
X0029816Y0085195D01*
X0029143Y0084852D01*
X0028424Y0084618D01*
X0027678Y0084500D01*
X0024500Y0084500D01*
X0024500Y0089100D01*
X0024100Y0089100D01*
X0024100Y0084500D01*
X0020922Y0084500D01*
X0020176Y0084618D01*
X0019457Y0084852D01*
X0018784Y0085195D01*
X0018173Y0085639D01*
X0017639Y0086173D01*
X0017195Y0086784D01*
X0016852Y0087457D01*
X0016618Y0088176D01*
X0016500Y0088922D01*
X0016500Y0089100D01*
X0024100Y0089100D01*
X0024100Y0089500D01*
X0016500Y0089500D01*
X0016500Y0089678D01*
X0016618Y0090424D01*
X0016852Y0091143D01*
X0017195Y0091816D01*
X0017609Y0092386D01*
X0016882Y0092687D01*
X0016100Y0093469D01*
X0016100Y0063600D01*
X0050447Y0063600D01*
X0052500Y0064142D02*
X0016100Y0064142D01*
X0016100Y0065740D02*
X0052500Y0065740D01*
X0052500Y0067339D02*
X0016100Y0067339D01*
X0016100Y0068937D02*
X0052500Y0068937D01*
X0052500Y0070536D02*
X0016100Y0070536D01*
X0016100Y0072134D02*
X0051573Y0072134D01*
X0049815Y0073733D02*
X0016100Y0073733D01*
X0016100Y0075332D02*
X0048056Y0075332D01*
X0046298Y0076930D02*
X0016100Y0076930D01*
X0016100Y0078529D02*
X0044540Y0078529D01*
X0042781Y0080127D02*
X0016100Y0080127D01*
X0016100Y0081726D02*
X0041023Y0081726D01*
X0039265Y0083324D02*
X0016100Y0083324D01*
X0016100Y0084923D02*
X0019318Y0084923D01*
X0017386Y0086521D02*
X0016100Y0086521D01*
X0016100Y0088120D02*
X0016637Y0088120D01*
X0016506Y0089718D02*
X0016100Y0089718D01*
X0016100Y0091317D02*
X0016940Y0091317D01*
X0016654Y0092915D02*
X0016100Y0092915D01*
X0024100Y0088120D02*
X0024500Y0088120D01*
X0024500Y0086521D02*
X0024100Y0086521D01*
X0024100Y0084923D02*
X0024500Y0084923D01*
X0029282Y0084923D02*
X0037506Y0084923D01*
X0035748Y0086521D02*
X0031214Y0086521D01*
X0031963Y0088120D02*
X0033989Y0088120D01*
X0032231Y0089718D02*
X0032094Y0089718D01*
X0066100Y0067500D02*
X0066858Y0067500D01*
X0066200Y0065911D01*
X0066200Y0062689D01*
X0067433Y0059712D01*
X0067845Y0059300D01*
X0067433Y0058888D01*
X0066200Y0055911D01*
X0066200Y0052689D01*
X0067433Y0049712D01*
X0067845Y0049300D01*
X0067433Y0048888D01*
X0066200Y0045911D01*
X0066200Y0042689D01*
X0067433Y0039712D01*
X0069712Y0037433D01*
X0072689Y0036200D01*
X0075911Y0036200D01*
X0078888Y0037433D01*
X0081167Y0039712D01*
X0082400Y0042689D01*
X0082400Y0045911D01*
X0081167Y0048888D01*
X0080755Y0049300D01*
X0081167Y0049712D01*
X0082400Y0052689D01*
X0082400Y0055911D01*
X0081167Y0058888D01*
X0080755Y0059300D01*
X0081167Y0059712D01*
X0082400Y0062689D01*
X0082400Y0065911D01*
X0081167Y0068888D01*
X0080755Y0069300D01*
X0081167Y0069712D01*
X0082400Y0072689D01*
X0082400Y0075911D01*
X0081167Y0078888D01*
X0080755Y0079300D01*
X0081167Y0079712D01*
X0082400Y0082689D01*
X0082400Y0085911D01*
X0081167Y0088888D01*
X0080755Y0089300D01*
X0081167Y0089712D01*
X0082400Y0092689D01*
X0082400Y0095911D01*
X0081167Y0098888D01*
X0080755Y0099300D01*
X0081167Y0099712D01*
X0082400Y0102689D01*
X0082400Y0105911D01*
X0081167Y0108888D01*
X0080755Y0109300D01*
X0081167Y0109712D01*
X0082400Y0112689D01*
X0082400Y0115911D01*
X0081167Y0118888D01*
X0080755Y0119300D01*
X0081167Y0119712D01*
X0082400Y0122689D01*
X0082400Y0125911D01*
X0081492Y0128104D01*
X0081669Y0128281D01*
X0082400Y0130045D01*
X0082400Y0138555D01*
X0081669Y0140319D01*
X0081100Y0140888D01*
X0081100Y0156350D01*
X0082593Y0156350D01*
X0087250Y0161007D01*
X0087250Y0162633D01*
X0094617Y0170000D01*
X0165000Y0170000D01*
X0165000Y0096100D01*
X0162965Y0096100D01*
X0162365Y0096700D01*
X0156235Y0096700D01*
X0151900Y0092365D01*
X0151900Y0090183D01*
X0141050Y0072100D01*
X0139748Y0072100D01*
X0136882Y0070913D01*
X0134687Y0068718D01*
X0133900Y0066817D01*
X0120652Y0080065D01*
X0118153Y0081100D01*
X0111742Y0081100D01*
X0112400Y0082689D01*
X0112400Y0085911D01*
X0111742Y0087500D01*
X0131900Y0087500D01*
X0131900Y0086235D01*
X0136235Y0081900D01*
X0142365Y0081900D01*
X0146700Y0086235D01*
X0146700Y0089558D01*
X0146826Y0089710D01*
X0147565Y0090448D01*
X0147686Y0090742D01*
X0156527Y0101350D01*
X0157593Y0101350D01*
X0162250Y0106007D01*
X0162250Y0112593D01*
X0161100Y0113743D01*
X0161100Y0129454D01*
X0161181Y0129697D01*
X0161100Y0130798D01*
X0161100Y0131903D01*
X0161002Y0132140D01*
X0161000Y0132165D01*
X0161000Y0136052D01*
X0159850Y0138828D01*
X0159850Y0149772D01*
X0161000Y0152548D01*
X0161000Y0161652D01*
X0159813Y0164518D01*
X0157618Y0166713D01*
X0154752Y0167900D01*
X0151648Y0167900D01*
X0148782Y0166713D01*
X0146587Y0164518D01*
X0145400Y0161652D01*
X0145400Y0152548D01*
X0146250Y0150496D01*
X0146250Y0138104D01*
X0145400Y0136052D01*
X0145400Y0126948D01*
X0146587Y0124082D01*
X0147500Y0123169D01*
X0147500Y0113743D01*
X0146350Y0112593D01*
X0146350Y0110382D01*
X0138615Y0101100D01*
X0111742Y0101100D01*
X0112400Y0102689D01*
X0112400Y0105911D01*
X0111167Y0108888D01*
X0110755Y0109300D01*
X0111167Y0109712D01*
X0112400Y0112689D01*
X0112400Y0115911D01*
X0111167Y0118888D01*
X0110755Y0119300D01*
X0111167Y0119712D01*
X0112400Y0122689D01*
X0112400Y0125911D01*
X0111167Y0128888D01*
X0108888Y0131167D01*
X0108457Y0131345D01*
X0108662Y0131627D01*
X0109026Y0132342D01*
X0109274Y0133106D01*
X0109400Y0133899D01*
X0109400Y0134000D01*
X0104600Y0134000D01*
X0104600Y0134600D01*
X0109400Y0134600D01*
X0109400Y0134701D01*
X0109274Y0135494D01*
X0109026Y0136258D01*
X0108662Y0136973D01*
X0108190Y0137622D01*
X0107622Y0138190D01*
X0106973Y0138662D01*
X0106258Y0139026D01*
X0105494Y0139274D01*
X0104701Y0139400D01*
X0104600Y0139400D01*
X0104600Y0134600D01*
X0104000Y0134600D01*
X0104000Y0139400D01*
X0103899Y0139400D01*
X0103106Y0139274D01*
X0102342Y0139026D01*
X0101627Y0138662D01*
X0100978Y0138190D01*
X0100410Y0137622D01*
X0099938Y0136973D01*
X0099574Y0136258D01*
X0099326Y0135494D01*
X0099200Y0134701D01*
X0099200Y0134600D01*
X0104000Y0134600D01*
X0104000Y0134000D01*
X0099200Y0134000D01*
X0099200Y0133899D01*
X0099326Y0133106D01*
X0099574Y0132342D01*
X0099938Y0131627D01*
X0100143Y0131345D01*
X0099712Y0131167D01*
X0097433Y0128888D01*
X0096200Y0125911D01*
X0096200Y0122689D01*
X0097433Y0119712D01*
X0097845Y0119300D01*
X0097433Y0118888D01*
X0096200Y0115911D01*
X0096200Y0112689D01*
X0097433Y0109712D01*
X0097845Y0109300D01*
X0097433Y0108888D01*
X0096200Y0105911D01*
X0096200Y0102689D01*
X0097433Y0099712D01*
X0097845Y0099300D01*
X0097433Y0098888D01*
X0096200Y0095911D01*
X0096200Y0092689D01*
X0097201Y0090273D01*
X0096698Y0090065D01*
X0094785Y0088152D01*
X0083535Y0076902D01*
X0082500Y0074403D01*
X0082500Y0036697D01*
X0083535Y0034198D01*
X0085448Y0032285D01*
X0089133Y0028600D01*
X0066100Y0028600D01*
X0066100Y0067500D01*
X0066100Y0067339D02*
X0066791Y0067339D01*
X0066200Y0065740D02*
X0066100Y0065740D01*
X0066100Y0064142D02*
X0066200Y0064142D01*
X0066260Y0062543D02*
X0066100Y0062543D01*
X0066100Y0060945D02*
X0066922Y0060945D01*
X0066100Y0059346D02*
X0067798Y0059346D01*
X0066961Y0057748D02*
X0066100Y0057748D01*
X0066100Y0056149D02*
X0066299Y0056149D01*
X0066200Y0054551D02*
X0066100Y0054551D01*
X0066100Y0052952D02*
X0066200Y0052952D01*
X0066100Y0051354D02*
X0066753Y0051354D01*
X0066100Y0049755D02*
X0067415Y0049755D01*
X0067130Y0048157D02*
X0066100Y0048157D01*
X0066100Y0046558D02*
X0066468Y0046558D01*
X0066200Y0044960D02*
X0066100Y0044960D01*
X0066100Y0043361D02*
X0066200Y0043361D01*
X0066100Y0041763D02*
X0066584Y0041763D01*
X0066100Y0040164D02*
X0067246Y0040164D01*
X0066100Y0038566D02*
X0068579Y0038566D01*
X0070836Y0036967D02*
X0066100Y0036967D01*
X0066100Y0035369D02*
X0083050Y0035369D01*
X0082500Y0036967D02*
X0077763Y0036967D01*
X0080021Y0038566D02*
X0082500Y0038566D01*
X0082500Y0040164D02*
X0081354Y0040164D01*
X0082016Y0041763D02*
X0082500Y0041763D01*
X0082500Y0043361D02*
X0082400Y0043361D01*
X0082400Y0044960D02*
X0082500Y0044960D01*
X0082500Y0046558D02*
X0082132Y0046558D01*
X0082500Y0048157D02*
X0081470Y0048157D01*
X0081185Y0049755D02*
X0082500Y0049755D01*
X0082500Y0051354D02*
X0081847Y0051354D01*
X0082400Y0052952D02*
X0082500Y0052952D01*
X0082500Y0054551D02*
X0082400Y0054551D01*
X0082301Y0056149D02*
X0082500Y0056149D01*
X0082500Y0057748D02*
X0081639Y0057748D01*
X0080802Y0059346D02*
X0082500Y0059346D01*
X0082500Y0060945D02*
X0081678Y0060945D01*
X0082340Y0062543D02*
X0082500Y0062543D01*
X0082500Y0064142D02*
X0082400Y0064142D01*
X0082400Y0065740D02*
X0082500Y0065740D01*
X0082500Y0067339D02*
X0081809Y0067339D01*
X0081118Y0068937D02*
X0082500Y0068937D01*
X0082500Y0070536D02*
X0081508Y0070536D01*
X0082170Y0072134D02*
X0082500Y0072134D01*
X0082500Y0073733D02*
X0082400Y0073733D01*
X0082400Y0075332D02*
X0082885Y0075332D01*
X0083563Y0076930D02*
X0081978Y0076930D01*
X0081316Y0078529D02*
X0085162Y0078529D01*
X0086760Y0080127D02*
X0081339Y0080127D01*
X0082001Y0081726D02*
X0088359Y0081726D01*
X0089957Y0083324D02*
X0082400Y0083324D01*
X0082400Y0084923D02*
X0091556Y0084923D01*
X0093154Y0086521D02*
X0082147Y0086521D01*
X0081485Y0088120D02*
X0094753Y0088120D01*
X0096351Y0089718D02*
X0081169Y0089718D01*
X0081832Y0091317D02*
X0096768Y0091317D01*
X0096200Y0092915D02*
X0082400Y0092915D01*
X0082400Y0094514D02*
X0096200Y0094514D01*
X0096283Y0096112D02*
X0082317Y0096112D01*
X0081655Y0097711D02*
X0096945Y0097711D01*
X0097836Y0099309D02*
X0080764Y0099309D01*
X0081662Y0100908D02*
X0096938Y0100908D01*
X0096276Y0102506D02*
X0082324Y0102506D01*
X0082400Y0104105D02*
X0096200Y0104105D01*
X0096200Y0105703D02*
X0082400Y0105703D01*
X0081824Y0107302D02*
X0096776Y0107302D01*
X0097445Y0108900D02*
X0081155Y0108900D01*
X0081493Y0110499D02*
X0097107Y0110499D01*
X0096445Y0112097D02*
X0082155Y0112097D01*
X0082400Y0113696D02*
X0096200Y0113696D01*
X0096200Y0115294D02*
X0082400Y0115294D01*
X0081993Y0116893D02*
X0096607Y0116893D01*
X0097269Y0118491D02*
X0081331Y0118491D01*
X0081323Y0120090D02*
X0097277Y0120090D01*
X0096614Y0121688D02*
X0081986Y0121688D01*
X0082400Y0123287D02*
X0096200Y0123287D01*
X0096200Y0124885D02*
X0082400Y0124885D01*
X0082163Y0126484D02*
X0096437Y0126484D01*
X0097099Y0128082D02*
X0081501Y0128082D01*
X0082249Y0129681D02*
X0098226Y0129681D01*
X0099984Y0131279D02*
X0082400Y0131279D01*
X0082400Y0132878D02*
X0099400Y0132878D01*
X0099514Y0136075D02*
X0082400Y0136075D01*
X0082400Y0137673D02*
X0100461Y0137673D01*
X0103098Y0139272D02*
X0082103Y0139272D01*
X0081118Y0140870D02*
X0146250Y0140870D01*
X0146250Y0139272D02*
X0135955Y0139272D01*
X0135778Y0139300D02*
X0136524Y0139182D01*
X0137243Y0138948D01*
X0137916Y0138605D01*
X0138527Y0138161D01*
X0139061Y0137627D01*
X0139505Y0137016D01*
X0139848Y0136343D01*
X0140082Y0135624D01*
X0140200Y0134878D01*
X0140200Y0131700D01*
X0135600Y0131700D01*
X0135600Y0131300D01*
X0140200Y0131300D01*
X0140200Y0128122D01*
X0140082Y0127376D01*
X0139848Y0126657D01*
X0139505Y0125984D01*
X0139061Y0125373D01*
X0138527Y0124839D01*
X0137916Y0124395D01*
X0137243Y0124052D01*
X0136524Y0123818D01*
X0135778Y0123700D01*
X0135600Y0123700D01*
X0135600Y0131300D01*
X0135200Y0131300D01*
X0135200Y0123700D01*
X0135022Y0123700D01*
X0134276Y0123818D01*
X0133557Y0124052D01*
X0132884Y0124395D01*
X0132273Y0124839D01*
X0131739Y0125373D01*
X0131295Y0125984D01*
X0130952Y0126657D01*
X0130718Y0127376D01*
X0130600Y0128122D01*
X0130600Y0131300D01*
X0135200Y0131300D01*
X0135200Y0131700D01*
X0135200Y0139300D01*
X0135022Y0139300D01*
X0134276Y0139182D01*
X0133557Y0138948D01*
X0132884Y0138605D01*
X0132273Y0138161D01*
X0131739Y0137627D01*
X0131295Y0137016D01*
X0130952Y0136343D01*
X0130718Y0135624D01*
X0130600Y0134878D01*
X0130600Y0131700D01*
X0135200Y0131700D01*
X0135600Y0131700D01*
X0135600Y0139300D01*
X0135778Y0139300D01*
X0135600Y0139272D02*
X0135200Y0139272D01*
X0134845Y0139272D02*
X0105502Y0139272D01*
X0104600Y0139272D02*
X0104000Y0139272D01*
X0104000Y0137673D02*
X0104600Y0137673D01*
X0104600Y0136075D02*
X0104000Y0136075D01*
X0104000Y0134476D02*
X0082400Y0134476D01*
X0081100Y0142469D02*
X0146250Y0142469D01*
X0146250Y0144068D02*
X0081100Y0144068D01*
X0081100Y0145666D02*
X0146250Y0145666D01*
X0146250Y0147265D02*
X0081100Y0147265D01*
X0081100Y0148863D02*
X0146250Y0148863D01*
X0146250Y0150462D02*
X0138550Y0150462D01*
X0138527Y0150439D02*
X0139061Y0150973D01*
X0139505Y0151584D01*
X0139848Y0152257D01*
X0140082Y0152976D01*
X0140200Y0153722D01*
X0140200Y0156900D01*
X0135600Y0156900D01*
X0135600Y0157300D01*
X0140200Y0157300D01*
X0140200Y0160478D01*
X0140082Y0161224D01*
X0139848Y0161943D01*
X0139505Y0162616D01*
X0139061Y0163227D01*
X0138527Y0163761D01*
X0137916Y0164205D01*
X0137243Y0164548D01*
X0136524Y0164782D01*
X0135778Y0164900D01*
X0135600Y0164900D01*
X0135600Y0157300D01*
X0135200Y0157300D01*
X0135200Y0164900D01*
X0135022Y0164900D01*
X0134276Y0164782D01*
X0133557Y0164548D01*
X0132884Y0164205D01*
X0132273Y0163761D01*
X0131739Y0163227D01*
X0131295Y0162616D01*
X0130952Y0161943D01*
X0130718Y0161224D01*
X0130600Y0160478D01*
X0130600Y0157300D01*
X0135200Y0157300D01*
X0135200Y0156900D01*
X0135600Y0156900D01*
X0135600Y0149300D01*
X0135778Y0149300D01*
X0136524Y0149418D01*
X0137243Y0149652D01*
X0137916Y0149995D01*
X0138527Y0150439D01*
X0139748Y0152060D02*
X0145602Y0152060D01*
X0145400Y0153659D02*
X0140190Y0153659D01*
X0140200Y0155257D02*
X0145400Y0155257D01*
X0145400Y0156856D02*
X0140200Y0156856D01*
X0140200Y0158454D02*
X0145400Y0158454D01*
X0145400Y0160053D02*
X0140200Y0160053D01*
X0139943Y0161651D02*
X0145400Y0161651D01*
X0146062Y0163250D02*
X0139039Y0163250D01*
X0136105Y0164848D02*
X0146917Y0164848D01*
X0148516Y0166447D02*
X0104154Y0166447D01*
X0104250Y0166350D02*
X0101350Y0169250D01*
X0099300Y0169250D01*
X0099300Y0164300D01*
X0104250Y0164300D01*
X0104250Y0166350D01*
X0104250Y0164848D02*
X0134695Y0164848D01*
X0135200Y0164848D02*
X0135600Y0164848D01*
X0135600Y0163250D02*
X0135200Y0163250D01*
X0135200Y0161651D02*
X0135600Y0161651D01*
X0135600Y0160053D02*
X0135200Y0160053D01*
X0135200Y0158454D02*
X0135600Y0158454D01*
X0135600Y0156856D02*
X0135200Y0156856D01*
X0135200Y0156900D02*
X0135200Y0149300D01*
X0135022Y0149300D01*
X0134276Y0149418D01*
X0133557Y0149652D01*
X0132884Y0149995D01*
X0132273Y0150439D01*
X0131739Y0150973D01*
X0131295Y0151584D01*
X0130952Y0152257D01*
X0130718Y0152976D01*
X0130600Y0153722D01*
X0130600Y0156900D01*
X0135200Y0156900D01*
X0135200Y0155257D02*
X0135600Y0155257D01*
X0135600Y0153659D02*
X0135200Y0153659D01*
X0135200Y0152060D02*
X0135600Y0152060D01*
X0135600Y0150462D02*
X0135200Y0150462D01*
X0132250Y0150462D02*
X0081100Y0150462D01*
X0081100Y0152060D02*
X0131052Y0152060D01*
X0130610Y0153659D02*
X0081100Y0153659D01*
X0081100Y0155257D02*
X0130600Y0155257D01*
X0130600Y0156856D02*
X0083099Y0156856D01*
X0084697Y0158454D02*
X0130600Y0158454D01*
X0130600Y0160053D02*
X0102053Y0160053D01*
X0101350Y0159350D02*
X0104250Y0162250D01*
X0104250Y0164300D01*
X0099300Y0164300D01*
X0099300Y0164300D01*
X0099300Y0164300D01*
X0099300Y0159350D01*
X0101350Y0159350D01*
X0099300Y0159350D02*
X0099300Y0164300D01*
X0099300Y0164300D01*
X0099300Y0164300D01*
X0094350Y0164300D01*
X0094350Y0166350D01*
X0097250Y0169250D01*
X0099300Y0169250D01*
X0099300Y0164300D01*
X0094350Y0164300D01*
X0094350Y0162250D01*
X0097250Y0159350D01*
X0099300Y0159350D01*
X0099300Y0160053D02*
X0099300Y0160053D01*
X0099300Y0161651D02*
X0099300Y0161651D01*
X0099300Y0163250D02*
X0099300Y0163250D01*
X0099300Y0164848D02*
X0099300Y0164848D01*
X0099300Y0166447D02*
X0099300Y0166447D01*
X0099300Y0168045D02*
X0099300Y0168045D01*
X0102555Y0168045D02*
X0165000Y0168045D01*
X0165000Y0166447D02*
X0157884Y0166447D01*
X0159483Y0164848D02*
X0165000Y0164848D01*
X0165000Y0163250D02*
X0160338Y0163250D01*
X0161000Y0161651D02*
X0165000Y0161651D01*
X0165000Y0160053D02*
X0161000Y0160053D01*
X0161000Y0158454D02*
X0165000Y0158454D01*
X0165000Y0156856D02*
X0161000Y0156856D01*
X0161000Y0155257D02*
X0165000Y0155257D01*
X0165000Y0153659D02*
X0161000Y0153659D01*
X0160798Y0152060D02*
X0165000Y0152060D01*
X0165000Y0150462D02*
X0160136Y0150462D01*
X0159850Y0148863D02*
X0165000Y0148863D01*
X0165000Y0147265D02*
X0159850Y0147265D01*
X0159850Y0145666D02*
X0165000Y0145666D01*
X0165000Y0144068D02*
X0159850Y0144068D01*
X0159850Y0142469D02*
X0165000Y0142469D01*
X0165000Y0140870D02*
X0159850Y0140870D01*
X0159850Y0139272D02*
X0165000Y0139272D01*
X0165000Y0137673D02*
X0160328Y0137673D01*
X0160990Y0136075D02*
X0165000Y0136075D01*
X0165000Y0134476D02*
X0161000Y0134476D01*
X0161000Y0132878D02*
X0165000Y0132878D01*
X0165000Y0131279D02*
X0161100Y0131279D01*
X0161175Y0129681D02*
X0165000Y0129681D01*
X0165000Y0128082D02*
X0161100Y0128082D01*
X0161100Y0126484D02*
X0165000Y0126484D01*
X0165000Y0124885D02*
X0161100Y0124885D01*
X0161100Y0123287D02*
X0165000Y0123287D01*
X0165000Y0121688D02*
X0161100Y0121688D01*
X0161100Y0120090D02*
X0165000Y0120090D01*
X0165000Y0118491D02*
X0161100Y0118491D01*
X0161100Y0116893D02*
X0165000Y0116893D01*
X0165000Y0115294D02*
X0161100Y0115294D01*
X0161147Y0113696D02*
X0165000Y0113696D01*
X0165000Y0112097D02*
X0162250Y0112097D01*
X0162250Y0110499D02*
X0165000Y0110499D01*
X0165000Y0108900D02*
X0162250Y0108900D01*
X0162250Y0107302D02*
X0165000Y0107302D01*
X0165000Y0105703D02*
X0161946Y0105703D01*
X0160348Y0104105D02*
X0165000Y0104105D01*
X0165000Y0102506D02*
X0158749Y0102506D01*
X0156158Y0100908D02*
X0165000Y0100908D01*
X0165000Y0099309D02*
X0154826Y0099309D01*
X0153494Y0097711D02*
X0165000Y0097711D01*
X0165000Y0096112D02*
X0162953Y0096112D01*
X0155647Y0096112D02*
X0152162Y0096112D01*
X0150830Y0094514D02*
X0154048Y0094514D01*
X0152450Y0092915D02*
X0149498Y0092915D01*
X0148165Y0091317D02*
X0151900Y0091317D01*
X0151621Y0089718D02*
X0146835Y0089718D01*
X0146700Y0088120D02*
X0150662Y0088120D01*
X0149703Y0086521D02*
X0146700Y0086521D01*
X0145388Y0084923D02*
X0148743Y0084923D01*
X0147784Y0083324D02*
X0143789Y0083324D01*
X0146825Y0081726D02*
X0112001Y0081726D01*
X0112400Y0083324D02*
X0134811Y0083324D01*
X0133212Y0084923D02*
X0112400Y0084923D01*
X0112147Y0086521D02*
X0131900Y0086521D01*
X0123787Y0076930D02*
X0143948Y0076930D01*
X0142989Y0075332D02*
X0125385Y0075332D01*
X0126984Y0073733D02*
X0142030Y0073733D01*
X0141071Y0072134D02*
X0128582Y0072134D01*
X0130181Y0070536D02*
X0136505Y0070536D01*
X0134907Y0068937D02*
X0131779Y0068937D01*
X0133378Y0067339D02*
X0134116Y0067339D01*
X0144907Y0078529D02*
X0122188Y0078529D01*
X0120501Y0080127D02*
X0145866Y0080127D01*
X0155972Y0070536D02*
X0181201Y0070536D01*
X0181201Y0072134D02*
X0156931Y0072134D01*
X0157890Y0073733D02*
X0181201Y0073733D01*
X0181201Y0075332D02*
X0158849Y0075332D01*
X0159808Y0076930D02*
X0181201Y0076930D01*
X0181201Y0078529D02*
X0160767Y0078529D01*
X0161726Y0080127D02*
X0181201Y0080127D01*
X0181201Y0081726D02*
X0162685Y0081726D01*
X0175142Y0083324D02*
X0181201Y0083324D01*
X0181201Y0084923D02*
X0177039Y0084923D01*
X0178009Y0086521D02*
X0181201Y0086521D01*
X0181201Y0088120D02*
X0178600Y0088120D01*
X0178600Y0089718D02*
X0181201Y0089718D01*
X0181201Y0091317D02*
X0178600Y0091317D01*
X0178600Y0092915D02*
X0181201Y0092915D01*
X0181201Y0094514D02*
X0178600Y0094514D01*
X0178600Y0096112D02*
X0181201Y0096112D01*
X0181201Y0097711D02*
X0178600Y0097711D01*
X0178600Y0099309D02*
X0181201Y0099309D01*
X0181201Y0100908D02*
X0178600Y0100908D01*
X0178600Y0102506D02*
X0181201Y0102506D01*
X0181201Y0104105D02*
X0178600Y0104105D01*
X0178600Y0105703D02*
X0181201Y0105703D01*
X0181201Y0107302D02*
X0178600Y0107302D01*
X0178600Y0108900D02*
X0181201Y0108900D01*
X0181201Y0110499D02*
X0178600Y0110499D01*
X0178600Y0112097D02*
X0181201Y0112097D01*
X0181201Y0113696D02*
X0178600Y0113696D01*
X0178600Y0115294D02*
X0181201Y0115294D01*
X0181201Y0116893D02*
X0178600Y0116893D01*
X0178600Y0118491D02*
X0181201Y0118491D01*
X0181201Y0120090D02*
X0178600Y0120090D01*
X0178600Y0121688D02*
X0181201Y0121688D01*
X0181201Y0123287D02*
X0178600Y0123287D01*
X0178600Y0124885D02*
X0181201Y0124885D01*
X0181201Y0126484D02*
X0178600Y0126484D01*
X0178600Y0128082D02*
X0181201Y0128082D01*
X0181201Y0129681D02*
X0178600Y0129681D01*
X0178600Y0131279D02*
X0181201Y0131279D01*
X0181201Y0132878D02*
X0178600Y0132878D01*
X0178600Y0134476D02*
X0181201Y0134476D01*
X0181201Y0136075D02*
X0178600Y0136075D01*
X0178600Y0137673D02*
X0181201Y0137673D01*
X0181201Y0139272D02*
X0178600Y0139272D01*
X0178600Y0140870D02*
X0181201Y0140870D01*
X0181201Y0142469D02*
X0178600Y0142469D01*
X0178600Y0144068D02*
X0181201Y0144068D01*
X0181201Y0145666D02*
X0178600Y0145666D01*
X0178600Y0147265D02*
X0181201Y0147265D01*
X0181201Y0148863D02*
X0178600Y0148863D01*
X0178600Y0150462D02*
X0181201Y0150462D01*
X0181201Y0152060D02*
X0178600Y0152060D01*
X0178600Y0153659D02*
X0181201Y0153659D01*
X0181201Y0155257D02*
X0178600Y0155257D01*
X0178600Y0156856D02*
X0181201Y0156856D01*
X0181201Y0158454D02*
X0178600Y0158454D01*
X0178600Y0160053D02*
X0181201Y0160053D01*
X0181201Y0161651D02*
X0178600Y0161651D01*
X0178600Y0163250D02*
X0181201Y0163250D01*
X0181201Y0164848D02*
X0178600Y0164848D01*
X0178600Y0166447D02*
X0181201Y0166447D01*
X0181201Y0168045D02*
X0178600Y0168045D01*
X0178600Y0169644D02*
X0181201Y0169644D01*
X0181201Y0171242D02*
X0178600Y0171242D01*
X0165000Y0169644D02*
X0094260Y0169644D01*
X0092662Y0168045D02*
X0096045Y0168045D01*
X0094446Y0166447D02*
X0091063Y0166447D01*
X0089465Y0164848D02*
X0094350Y0164848D01*
X0094350Y0163250D02*
X0087866Y0163250D01*
X0087250Y0161651D02*
X0094949Y0161651D01*
X0096547Y0160053D02*
X0086296Y0160053D01*
X0103651Y0161651D02*
X0130857Y0161651D01*
X0131761Y0163250D02*
X0104250Y0163250D01*
X0108139Y0137673D02*
X0131785Y0137673D01*
X0130865Y0136075D02*
X0109086Y0136075D01*
X0109200Y0132878D02*
X0130600Y0132878D01*
X0130600Y0134476D02*
X0104600Y0134476D01*
X0108616Y0131279D02*
X0130600Y0131279D01*
X0130600Y0129681D02*
X0110374Y0129681D01*
X0111501Y0128082D02*
X0130606Y0128082D01*
X0131040Y0126484D02*
X0112163Y0126484D01*
X0112400Y0124885D02*
X0132226Y0124885D01*
X0135200Y0124885D02*
X0135600Y0124885D01*
X0135600Y0126484D02*
X0135200Y0126484D01*
X0135200Y0128082D02*
X0135600Y0128082D01*
X0135600Y0129681D02*
X0135200Y0129681D01*
X0135200Y0131279D02*
X0135600Y0131279D01*
X0135600Y0132878D02*
X0135200Y0132878D01*
X0135200Y0134476D02*
X0135600Y0134476D01*
X0135600Y0136075D02*
X0135200Y0136075D01*
X0135200Y0137673D02*
X0135600Y0137673D01*
X0139015Y0137673D02*
X0146072Y0137673D01*
X0145410Y0136075D02*
X0139935Y0136075D01*
X0140200Y0134476D02*
X0145400Y0134476D01*
X0145400Y0132878D02*
X0140200Y0132878D01*
X0140200Y0131279D02*
X0145400Y0131279D01*
X0145400Y0129681D02*
X0140200Y0129681D01*
X0140194Y0128082D02*
X0145400Y0128082D01*
X0145592Y0126484D02*
X0139760Y0126484D01*
X0138574Y0124885D02*
X0146255Y0124885D01*
X0147382Y0123287D02*
X0112400Y0123287D01*
X0111986Y0121688D02*
X0147500Y0121688D01*
X0147500Y0120090D02*
X0111323Y0120090D01*
X0111331Y0118491D02*
X0147500Y0118491D01*
X0147500Y0116893D02*
X0111993Y0116893D01*
X0112400Y0115294D02*
X0147500Y0115294D01*
X0147453Y0113696D02*
X0136905Y0113696D01*
X0136350Y0114250D02*
X0134300Y0114250D01*
X0134300Y0109300D01*
X0139250Y0109300D01*
X0139250Y0111350D01*
X0136350Y0114250D01*
X0134300Y0114250D02*
X0132250Y0114250D01*
X0129350Y0111350D01*
X0129350Y0109300D01*
X0134300Y0109300D01*
X0134300Y0109300D01*
X0134300Y0109300D01*
X0139250Y0109300D01*
X0139250Y0107250D01*
X0136350Y0104350D01*
X0134300Y0104350D01*
X0134300Y0109300D01*
X0134300Y0109300D01*
X0134300Y0109300D01*
X0134300Y0114250D01*
X0134300Y0113696D02*
X0134300Y0113696D01*
X0134300Y0112097D02*
X0134300Y0112097D01*
X0134300Y0110499D02*
X0134300Y0110499D01*
X0134300Y0109300D02*
X0129350Y0109300D01*
X0129350Y0107250D01*
X0132250Y0104350D01*
X0134300Y0104350D01*
X0134300Y0109300D01*
X0134300Y0108900D02*
X0134300Y0108900D01*
X0134300Y0107302D02*
X0134300Y0107302D01*
X0134300Y0105703D02*
X0134300Y0105703D01*
X0137704Y0105703D02*
X0142451Y0105703D01*
X0141119Y0104105D02*
X0112400Y0104105D01*
X0112400Y0105703D02*
X0130896Y0105703D01*
X0129350Y0107302D02*
X0111824Y0107302D01*
X0111155Y0108900D02*
X0129350Y0108900D01*
X0129350Y0110499D02*
X0111493Y0110499D01*
X0112155Y0112097D02*
X0130097Y0112097D01*
X0131695Y0113696D02*
X0112400Y0113696D01*
X0112324Y0102506D02*
X0139787Y0102506D01*
X0139250Y0107302D02*
X0143783Y0107302D01*
X0145115Y0108900D02*
X0139250Y0108900D01*
X0139250Y0110499D02*
X0146350Y0110499D01*
X0146350Y0112097D02*
X0138503Y0112097D01*
X0155013Y0068937D02*
X0181201Y0068937D01*
X0181201Y0067339D02*
X0154484Y0067339D01*
X0155100Y0065740D02*
X0181201Y0065740D01*
X0181201Y0064142D02*
X0155100Y0064142D01*
X0155015Y0062543D02*
X0181201Y0062543D01*
X0181201Y0060945D02*
X0154353Y0060945D01*
X0153377Y0059346D02*
X0181201Y0059346D01*
X0181201Y0057748D02*
X0154314Y0057748D01*
X0154977Y0056149D02*
X0181201Y0056149D01*
X0181201Y0054551D02*
X0155100Y0054551D01*
X0155100Y0052952D02*
X0181201Y0052952D01*
X0181201Y0051354D02*
X0154522Y0051354D01*
X0153786Y0049755D02*
X0181201Y0049755D01*
X0181201Y0048157D02*
X0154145Y0048157D01*
X0154807Y0046558D02*
X0181201Y0046558D01*
X0181201Y0044960D02*
X0155100Y0044960D01*
X0155100Y0043361D02*
X0181201Y0043361D01*
X0181201Y0041763D02*
X0154692Y0041763D01*
X0154030Y0040164D02*
X0181201Y0040164D01*
X0181201Y0038566D02*
X0153976Y0038566D01*
X0154638Y0036967D02*
X0181201Y0036967D01*
X0181201Y0035369D02*
X0155100Y0035369D01*
X0155100Y0033770D02*
X0181201Y0033770D01*
X0181201Y0032172D02*
X0154861Y0032172D01*
X0154199Y0030573D02*
X0181201Y0030573D01*
X0181201Y0028975D02*
X0153656Y0028975D01*
X0154468Y0027376D02*
X0181201Y0027376D01*
X0181201Y0025778D02*
X0155100Y0025778D01*
X0155100Y0024179D02*
X0181201Y0024179D01*
X0181201Y0022581D02*
X0155030Y0022581D01*
X0154368Y0020982D02*
X0181201Y0020982D01*
X0181201Y0019384D02*
X0153414Y0019384D01*
X0151816Y0017785D02*
X0181201Y0017785D01*
X0181201Y0016187D02*
X0151726Y0016187D01*
X0152100Y0014588D02*
X0175016Y0014588D01*
X0173502Y0012990D02*
X0151921Y0012990D01*
X0151120Y0011391D02*
X0172840Y0011391D01*
X0172531Y0009793D02*
X0148961Y0009793D01*
X0144500Y0009793D02*
X0144100Y0009793D01*
X0144100Y0011391D02*
X0144500Y0011391D01*
X0144500Y0012990D02*
X0144100Y0012990D01*
X0139639Y0009793D02*
X0124409Y0009793D01*
X0126008Y0011391D02*
X0137480Y0011391D01*
X0136679Y0012990D02*
X0127606Y0012990D01*
X0129205Y0014588D02*
X0136500Y0014588D01*
X0136874Y0016187D02*
X0130803Y0016187D01*
X0122328Y0008194D02*
X0172531Y0008194D01*
X0088759Y0028975D02*
X0066100Y0028975D01*
X0066100Y0030573D02*
X0087160Y0030573D01*
X0085562Y0032172D02*
X0066100Y0032172D01*
X0066100Y0033770D02*
X0083963Y0033770D01*
X0085448Y0032285D02*
X0085448Y0032285D01*
D17*
X0029300Y0029300D03*
X0029300Y0074300D03*
X0116800Y0149300D03*
M02*
