G75*
%MOIN*%
%OFA0B0*%
%FSLAX25Y25*%
%IPPOS*%
%LPD*%
%AMOC8*
5,1,8,0,0,1.08239X$1,22.5*
%
%ADD10OC8,0.07800*%
%ADD11C,0.08600*%
%ADD12R,0.09000X0.09000*%
%ADD13C,0.09000*%
%ADD14C,0.01600*%
%ADD15R,0.06962X0.06962*%
D10*
X0140300Y0109300D03*
X0160300Y0109300D03*
X0165300Y0089300D03*
X0145300Y0089300D03*
X0105300Y0164300D03*
X0085300Y0164300D03*
D11*
X0034600Y0149300D02*
X0026000Y0149300D01*
X0026000Y0139300D02*
X0034600Y0139300D01*
X0034600Y0129300D02*
X0026000Y0129300D01*
X0026000Y0119300D02*
X0034600Y0119300D01*
X0034600Y0109300D02*
X0026000Y0109300D01*
X0026000Y0099300D02*
X0034600Y0099300D01*
X0034600Y0089300D02*
X0026000Y0089300D01*
X0141400Y0127200D02*
X0141400Y0135800D01*
X0141400Y0152800D02*
X0141400Y0161400D01*
X0159200Y0161400D02*
X0159200Y0152800D01*
X0159200Y0135800D02*
X0159200Y0127200D01*
X0154600Y0064300D02*
X0146000Y0064300D01*
X0146000Y0054300D02*
X0154600Y0054300D01*
X0154600Y0044300D02*
X0146000Y0044300D01*
X0146000Y0034300D02*
X0154600Y0034300D01*
X0154600Y0024300D02*
X0146000Y0024300D01*
X0146000Y0014300D02*
X0154600Y0014300D01*
D12*
X0080300Y0134300D03*
D13*
X0080300Y0124300D03*
X0080300Y0114300D03*
X0080300Y0104300D03*
X0080300Y0094300D03*
X0080300Y0084300D03*
X0080300Y0074300D03*
X0080300Y0064300D03*
X0080300Y0054300D03*
X0080300Y0044300D03*
X0110300Y0044300D03*
X0110300Y0054300D03*
X0110300Y0064300D03*
X0110300Y0074300D03*
X0110300Y0084300D03*
X0110300Y0094300D03*
X0110300Y0104300D03*
X0110300Y0114300D03*
X0110300Y0124300D03*
X0110300Y0134300D03*
D14*
X0006600Y0179092D02*
X0006600Y0015008D01*
X0007954Y0015568D01*
X0010646Y0015568D01*
X0013134Y0014538D01*
X0015038Y0012634D01*
X0016068Y0010146D01*
X0016068Y0007454D01*
X0015715Y0006600D01*
X0179385Y0006600D01*
X0179031Y0007454D01*
X0179031Y0010146D01*
X0180062Y0012634D01*
X0181966Y0014538D01*
X0184454Y0015568D01*
X0187146Y0015568D01*
X0188201Y0015132D01*
X0188201Y0178968D01*
X0187146Y0178531D01*
X0184454Y0178531D01*
X0181966Y0179562D01*
X0180062Y0181466D01*
X0179031Y0183954D01*
X0179031Y0186646D01*
X0179576Y0187961D01*
X0015524Y0187961D01*
X0016068Y0186646D01*
X0016068Y0183954D01*
X0015038Y0181466D01*
X0013134Y0179562D01*
X0010646Y0178531D01*
X0007954Y0178531D01*
X0006600Y0179092D01*
X0006600Y0177636D02*
X0188201Y0177636D01*
X0188201Y0176038D02*
X0006600Y0176038D01*
X0006600Y0174439D02*
X0188201Y0174439D01*
X0188201Y0172841D02*
X0089063Y0172841D01*
X0088904Y0173000D02*
X0081696Y0173000D01*
X0076600Y0167904D01*
X0076600Y0160696D01*
X0081696Y0155600D01*
X0088904Y0155600D01*
X0094000Y0160696D01*
X0094000Y0167904D01*
X0088904Y0173000D01*
X0090661Y0171242D02*
X0188201Y0171242D01*
X0188201Y0169644D02*
X0163077Y0169644D01*
X0164355Y0169115D02*
X0161010Y0170500D01*
X0157390Y0170500D01*
X0154045Y0169115D01*
X0151485Y0166555D01*
X0150100Y0163210D01*
X0150100Y0150990D01*
X0151485Y0147645D01*
X0154045Y0145085D01*
X0155941Y0144300D01*
X0154045Y0143515D01*
X0151485Y0140955D01*
X0150100Y0137610D01*
X0150100Y0125390D01*
X0151485Y0122045D01*
X0154045Y0119485D01*
X0157390Y0118100D01*
X0161010Y0118100D01*
X0164355Y0119485D01*
X0166915Y0122045D01*
X0168300Y0125390D01*
X0168300Y0137610D01*
X0166915Y0140955D01*
X0164355Y0143515D01*
X0162459Y0144300D01*
X0164355Y0145085D01*
X0166915Y0147645D01*
X0168300Y0150990D01*
X0168300Y0163210D01*
X0166915Y0166555D01*
X0164355Y0169115D01*
X0165424Y0168045D02*
X0188201Y0168045D01*
X0188201Y0166447D02*
X0166959Y0166447D01*
X0167621Y0164848D02*
X0188201Y0164848D01*
X0188201Y0163250D02*
X0168284Y0163250D01*
X0168300Y0161651D02*
X0188201Y0161651D01*
X0188201Y0160053D02*
X0168300Y0160053D01*
X0168300Y0158454D02*
X0188201Y0158454D01*
X0188201Y0156856D02*
X0168300Y0156856D01*
X0168300Y0155257D02*
X0188201Y0155257D01*
X0188201Y0153659D02*
X0168300Y0153659D01*
X0168300Y0152060D02*
X0188201Y0152060D01*
X0188201Y0150462D02*
X0168081Y0150462D01*
X0167419Y0148863D02*
X0188201Y0148863D01*
X0188201Y0147265D02*
X0166534Y0147265D01*
X0164935Y0145666D02*
X0188201Y0145666D01*
X0188201Y0144068D02*
X0163020Y0144068D01*
X0165400Y0142469D02*
X0188201Y0142469D01*
X0188201Y0140870D02*
X0166949Y0140870D01*
X0167612Y0139272D02*
X0188201Y0139272D01*
X0188201Y0137673D02*
X0168274Y0137673D01*
X0168300Y0136075D02*
X0188201Y0136075D01*
X0188201Y0134476D02*
X0168300Y0134476D01*
X0168300Y0132878D02*
X0188201Y0132878D01*
X0188201Y0131279D02*
X0168300Y0131279D01*
X0168300Y0129681D02*
X0188201Y0129681D01*
X0188201Y0128082D02*
X0168300Y0128082D01*
X0168300Y0126484D02*
X0188201Y0126484D01*
X0188201Y0124885D02*
X0168091Y0124885D01*
X0167429Y0123287D02*
X0188201Y0123287D01*
X0188201Y0121688D02*
X0166558Y0121688D01*
X0164959Y0120090D02*
X0188201Y0120090D01*
X0188201Y0118491D02*
X0161955Y0118491D01*
X0163904Y0118000D02*
X0156696Y0118000D01*
X0151600Y0112904D01*
X0151600Y0105696D01*
X0156696Y0100600D01*
X0163904Y0100600D01*
X0169000Y0105696D01*
X0169000Y0112904D01*
X0163904Y0118000D01*
X0165011Y0116893D02*
X0188201Y0116893D01*
X0188201Y0115294D02*
X0166609Y0115294D01*
X0168208Y0113696D02*
X0188201Y0113696D01*
X0188201Y0112097D02*
X0169000Y0112097D01*
X0169000Y0110499D02*
X0188201Y0110499D01*
X0188201Y0108900D02*
X0169000Y0108900D01*
X0169000Y0107302D02*
X0188201Y0107302D01*
X0188201Y0105703D02*
X0169000Y0105703D01*
X0167408Y0104105D02*
X0188201Y0104105D01*
X0188201Y0102506D02*
X0165810Y0102506D01*
X0164211Y0100908D02*
X0188201Y0100908D01*
X0188201Y0099309D02*
X0118299Y0099309D01*
X0118295Y0099300D02*
X0119600Y0102450D01*
X0119600Y0106150D01*
X0118295Y0109300D01*
X0119600Y0112450D01*
X0119600Y0116150D01*
X0118295Y0119300D01*
X0119600Y0122450D01*
X0119600Y0126150D01*
X0118184Y0129568D01*
X0116048Y0131704D01*
X0116138Y0131882D01*
X0116445Y0132825D01*
X0116600Y0133804D01*
X0116600Y0134000D01*
X0110600Y0134000D01*
X0110600Y0134600D01*
X0116600Y0134600D01*
X0116600Y0134796D01*
X0116445Y0135775D01*
X0116138Y0136718D01*
X0115688Y0137602D01*
X0115105Y0138404D01*
X0114404Y0139105D01*
X0113602Y0139688D01*
X0112718Y0140138D01*
X0111775Y0140445D01*
X0110796Y0140600D01*
X0110600Y0140600D01*
X0110600Y0134600D01*
X0110000Y0134600D01*
X0110000Y0140600D01*
X0109804Y0140600D01*
X0108825Y0140445D01*
X0107882Y0140138D01*
X0106998Y0139688D01*
X0106196Y0139105D01*
X0105495Y0138404D01*
X0104912Y0137602D01*
X0104462Y0136718D01*
X0104155Y0135775D01*
X0104000Y0134796D01*
X0104000Y0134600D01*
X0110000Y0134600D01*
X0110000Y0134000D01*
X0104000Y0134000D01*
X0104000Y0133804D01*
X0104155Y0132825D01*
X0104462Y0131882D01*
X0104552Y0131704D01*
X0102416Y0129568D01*
X0101000Y0126150D01*
X0101000Y0122450D01*
X0102305Y0119300D01*
X0101000Y0116150D01*
X0101000Y0112450D01*
X0102305Y0109300D01*
X0101000Y0106150D01*
X0101000Y0102450D01*
X0102305Y0099300D01*
X0101000Y0096150D01*
X0101000Y0092450D01*
X0102305Y0089300D01*
X0101000Y0086150D01*
X0101000Y0082450D01*
X0102305Y0079300D01*
X0101000Y0076150D01*
X0101000Y0072450D01*
X0102305Y0069300D01*
X0101000Y0066150D01*
X0101000Y0062450D01*
X0102305Y0059300D01*
X0101000Y0056150D01*
X0101000Y0052450D01*
X0102305Y0049300D01*
X0101000Y0046150D01*
X0101000Y0042450D01*
X0102416Y0039032D01*
X0105032Y0036416D01*
X0108450Y0035000D01*
X0112150Y0035000D01*
X0115568Y0036416D01*
X0118184Y0039032D01*
X0119600Y0042450D01*
X0119600Y0046150D01*
X0118295Y0049300D01*
X0119600Y0052450D01*
X0119600Y0056150D01*
X0118295Y0059300D01*
X0119600Y0062450D01*
X0119600Y0066150D01*
X0118295Y0069300D01*
X0119600Y0072450D01*
X0119600Y0076150D01*
X0118295Y0079300D01*
X0119600Y0082450D01*
X0119600Y0086150D01*
X0118295Y0089300D01*
X0119600Y0092450D01*
X0119600Y0096150D01*
X0118295Y0099300D01*
X0118953Y0097711D02*
X0141407Y0097711D01*
X0141696Y0098000D02*
X0136600Y0092904D01*
X0136600Y0085696D01*
X0141696Y0080600D01*
X0148904Y0080600D01*
X0154000Y0085696D01*
X0154000Y0092904D01*
X0148904Y0098000D01*
X0141696Y0098000D01*
X0139809Y0096112D02*
X0119600Y0096112D01*
X0119600Y0094514D02*
X0138210Y0094514D01*
X0136612Y0092915D02*
X0119600Y0092915D01*
X0119130Y0091317D02*
X0136600Y0091317D01*
X0136600Y0089718D02*
X0118468Y0089718D01*
X0118784Y0088120D02*
X0136600Y0088120D01*
X0136600Y0086521D02*
X0119446Y0086521D01*
X0119600Y0084923D02*
X0137374Y0084923D01*
X0138972Y0083324D02*
X0119600Y0083324D01*
X0119300Y0081726D02*
X0140571Y0081726D01*
X0144190Y0073400D02*
X0140845Y0072015D01*
X0138285Y0069455D01*
X0136900Y0066110D01*
X0136900Y0062490D01*
X0138221Y0059300D01*
X0136900Y0056110D01*
X0136900Y0052490D01*
X0138221Y0049300D01*
X0136900Y0046110D01*
X0136900Y0042490D01*
X0138221Y0039300D01*
X0136900Y0036110D01*
X0136900Y0032490D01*
X0138221Y0029300D01*
X0136900Y0026110D01*
X0136900Y0022490D01*
X0138285Y0019145D01*
X0140496Y0016934D01*
X0140347Y0016642D01*
X0140050Y0015728D01*
X0139900Y0014780D01*
X0139900Y0014500D01*
X0150100Y0014500D01*
X0150100Y0014100D01*
X0150500Y0014100D01*
X0150500Y0014500D01*
X0160700Y0014500D01*
X0160700Y0014780D01*
X0160550Y0015728D01*
X0160253Y0016642D01*
X0160104Y0016934D01*
X0162315Y0019145D01*
X0163700Y0022490D01*
X0163700Y0026110D01*
X0162379Y0029300D01*
X0163700Y0032490D01*
X0163700Y0036110D01*
X0162379Y0039300D01*
X0163700Y0042490D01*
X0163700Y0046110D01*
X0162379Y0049300D01*
X0163700Y0052490D01*
X0163700Y0056110D01*
X0162379Y0059300D01*
X0163700Y0062490D01*
X0163700Y0066110D01*
X0162315Y0069455D01*
X0159755Y0072015D01*
X0156410Y0073400D01*
X0144190Y0073400D01*
X0141135Y0072134D02*
X0119469Y0072134D01*
X0119600Y0073733D02*
X0188201Y0073733D01*
X0188201Y0072134D02*
X0159465Y0072134D01*
X0161233Y0070536D02*
X0188201Y0070536D01*
X0188201Y0068937D02*
X0162529Y0068937D01*
X0163191Y0067339D02*
X0188201Y0067339D01*
X0188201Y0065740D02*
X0163700Y0065740D01*
X0163700Y0064142D02*
X0188201Y0064142D01*
X0188201Y0062543D02*
X0163700Y0062543D01*
X0163060Y0060945D02*
X0188201Y0060945D01*
X0188201Y0059346D02*
X0162398Y0059346D01*
X0163022Y0057748D02*
X0188201Y0057748D01*
X0188201Y0056149D02*
X0163684Y0056149D01*
X0163700Y0054551D02*
X0188201Y0054551D01*
X0188201Y0052952D02*
X0163700Y0052952D01*
X0163229Y0051354D02*
X0188201Y0051354D01*
X0188201Y0049755D02*
X0162567Y0049755D01*
X0162852Y0048157D02*
X0188201Y0048157D01*
X0188201Y0046558D02*
X0163514Y0046558D01*
X0163700Y0044960D02*
X0188201Y0044960D01*
X0188201Y0043361D02*
X0163700Y0043361D01*
X0163399Y0041763D02*
X0188201Y0041763D01*
X0188201Y0040164D02*
X0162737Y0040164D01*
X0162683Y0038566D02*
X0188201Y0038566D01*
X0188201Y0036967D02*
X0163345Y0036967D01*
X0163700Y0035369D02*
X0188201Y0035369D01*
X0188201Y0033770D02*
X0163700Y0033770D01*
X0163568Y0032172D02*
X0188201Y0032172D01*
X0188201Y0030573D02*
X0162906Y0030573D01*
X0162513Y0028975D02*
X0188201Y0028975D01*
X0188201Y0027376D02*
X0163176Y0027376D01*
X0163700Y0025778D02*
X0188201Y0025778D01*
X0188201Y0024179D02*
X0163700Y0024179D01*
X0163700Y0022581D02*
X0188201Y0022581D01*
X0188201Y0020982D02*
X0163075Y0020982D01*
X0162413Y0019384D02*
X0188201Y0019384D01*
X0188201Y0017785D02*
X0160954Y0017785D01*
X0160401Y0016187D02*
X0188201Y0016187D01*
X0182087Y0014588D02*
X0160700Y0014588D01*
X0160700Y0014100D02*
X0150500Y0014100D01*
X0150500Y0008200D01*
X0155080Y0008200D01*
X0156028Y0008350D01*
X0156942Y0008647D01*
X0157797Y0009083D01*
X0158574Y0009647D01*
X0159253Y0010326D01*
X0159817Y0011103D01*
X0160253Y0011958D01*
X0160550Y0012872D01*
X0160700Y0013820D01*
X0160700Y0014100D01*
X0160568Y0012990D02*
X0180417Y0012990D01*
X0179547Y0011391D02*
X0159964Y0011391D01*
X0158719Y0009793D02*
X0179031Y0009793D01*
X0179031Y0008194D02*
X0016068Y0008194D01*
X0016068Y0009793D02*
X0141881Y0009793D01*
X0142026Y0009647D02*
X0141347Y0010326D01*
X0140783Y0011103D01*
X0140347Y0011958D01*
X0140050Y0012872D01*
X0139900Y0013820D01*
X0139900Y0014100D01*
X0150100Y0014100D01*
X0150100Y0008200D01*
X0145520Y0008200D01*
X0144572Y0008350D01*
X0143658Y0008647D01*
X0142803Y0009083D01*
X0142026Y0009647D01*
X0140636Y0011391D02*
X0015553Y0011391D01*
X0014683Y0012990D02*
X0140031Y0012990D01*
X0139900Y0014588D02*
X0013013Y0014588D01*
X0006600Y0016187D02*
X0140199Y0016187D01*
X0139646Y0017785D02*
X0006600Y0017785D01*
X0006600Y0019384D02*
X0138187Y0019384D01*
X0137525Y0020982D02*
X0006600Y0020982D01*
X0006600Y0022581D02*
X0136900Y0022581D01*
X0136900Y0024179D02*
X0006600Y0024179D01*
X0006600Y0025778D02*
X0136900Y0025778D01*
X0137424Y0027376D02*
X0006600Y0027376D01*
X0006600Y0028975D02*
X0138087Y0028975D01*
X0137694Y0030573D02*
X0006600Y0030573D01*
X0006600Y0032172D02*
X0137032Y0032172D01*
X0136900Y0033770D02*
X0006600Y0033770D01*
X0006600Y0035369D02*
X0077560Y0035369D01*
X0078450Y0035000D02*
X0082150Y0035000D01*
X0085568Y0036416D01*
X0088184Y0039032D01*
X0089600Y0042450D01*
X0089600Y0046150D01*
X0088295Y0049300D01*
X0089600Y0052450D01*
X0089600Y0056150D01*
X0088295Y0059300D01*
X0089600Y0062450D01*
X0089600Y0066150D01*
X0088295Y0069300D01*
X0089600Y0072450D01*
X0089600Y0076150D01*
X0088295Y0079300D01*
X0089600Y0082450D01*
X0089600Y0086150D01*
X0088295Y0089300D01*
X0089600Y0092450D01*
X0089600Y0096150D01*
X0088295Y0099300D01*
X0089600Y0102450D01*
X0089600Y0106150D01*
X0088295Y0109300D01*
X0089600Y0112450D01*
X0089600Y0116150D01*
X0088295Y0119300D01*
X0089600Y0122450D01*
X0089600Y0126150D01*
X0089042Y0127498D01*
X0089600Y0128845D01*
X0089600Y0139755D01*
X0088869Y0141519D01*
X0087519Y0142869D01*
X0085755Y0143600D01*
X0074845Y0143600D01*
X0073081Y0142869D01*
X0071731Y0141519D01*
X0071000Y0139755D01*
X0071000Y0128845D01*
X0071558Y0127498D01*
X0071000Y0126150D01*
X0071000Y0122450D01*
X0072305Y0119300D01*
X0071000Y0116150D01*
X0071000Y0112450D01*
X0072305Y0109300D01*
X0071000Y0106150D01*
X0071000Y0102450D01*
X0072305Y0099300D01*
X0071000Y0096150D01*
X0071000Y0092450D01*
X0072305Y0089300D01*
X0071000Y0086150D01*
X0071000Y0082450D01*
X0072305Y0079300D01*
X0071000Y0076150D01*
X0071000Y0072450D01*
X0072305Y0069300D01*
X0071000Y0066150D01*
X0071000Y0062450D01*
X0072305Y0059300D01*
X0071000Y0056150D01*
X0071000Y0052450D01*
X0072305Y0049300D01*
X0071000Y0046150D01*
X0071000Y0042450D01*
X0072416Y0039032D01*
X0075032Y0036416D01*
X0078450Y0035000D01*
X0074481Y0036967D02*
X0006600Y0036967D01*
X0006600Y0038566D02*
X0072882Y0038566D01*
X0071947Y0040164D02*
X0006600Y0040164D01*
X0006600Y0041763D02*
X0071285Y0041763D01*
X0071000Y0043361D02*
X0006600Y0043361D01*
X0006600Y0044960D02*
X0071000Y0044960D01*
X0071169Y0046558D02*
X0006600Y0046558D01*
X0006600Y0048157D02*
X0071831Y0048157D01*
X0072116Y0049755D02*
X0006600Y0049755D01*
X0006600Y0051354D02*
X0071454Y0051354D01*
X0071000Y0052952D02*
X0006600Y0052952D01*
X0006600Y0054551D02*
X0071000Y0054551D01*
X0071000Y0056149D02*
X0006600Y0056149D01*
X0006600Y0057748D02*
X0071662Y0057748D01*
X0072286Y0059346D02*
X0006600Y0059346D01*
X0006600Y0060945D02*
X0071623Y0060945D01*
X0071000Y0062543D02*
X0006600Y0062543D01*
X0006600Y0064142D02*
X0071000Y0064142D01*
X0071000Y0065740D02*
X0006600Y0065740D01*
X0006600Y0067339D02*
X0071493Y0067339D01*
X0072155Y0068937D02*
X0006600Y0068937D01*
X0006600Y0070536D02*
X0071793Y0070536D01*
X0071131Y0072134D02*
X0006600Y0072134D01*
X0006600Y0073733D02*
X0071000Y0073733D01*
X0071000Y0075332D02*
X0006600Y0075332D01*
X0006600Y0076930D02*
X0071323Y0076930D01*
X0071985Y0078529D02*
X0006600Y0078529D01*
X0006600Y0080127D02*
X0071962Y0080127D01*
X0071300Y0081726D02*
X0006600Y0081726D01*
X0006600Y0083324D02*
X0024736Y0083324D01*
X0024572Y0083350D02*
X0025520Y0083200D01*
X0030100Y0083200D01*
X0030100Y0089100D01*
X0030500Y0089100D01*
X0030500Y0089500D01*
X0040700Y0089500D01*
X0040700Y0089780D01*
X0040550Y0090728D01*
X0040253Y0091642D01*
X0040104Y0091934D01*
X0042315Y0094145D01*
X0043700Y0097490D01*
X0043700Y0101110D01*
X0042379Y0104300D01*
X0043700Y0107490D01*
X0043700Y0111110D01*
X0042379Y0114300D01*
X0043700Y0117490D01*
X0043700Y0121110D01*
X0042379Y0124300D01*
X0043700Y0127490D01*
X0043700Y0131110D01*
X0042379Y0134300D01*
X0043700Y0137490D01*
X0043700Y0141110D01*
X0042379Y0144300D01*
X0043700Y0147490D01*
X0043700Y0151110D01*
X0042315Y0154455D01*
X0039755Y0157015D01*
X0036410Y0158400D01*
X0024190Y0158400D01*
X0020845Y0157015D01*
X0018285Y0154455D01*
X0016900Y0151110D01*
X0016900Y0147490D01*
X0018221Y0144300D01*
X0016900Y0141110D01*
X0016900Y0137490D01*
X0018221Y0134300D01*
X0016900Y0131110D01*
X0016900Y0127490D01*
X0018221Y0124300D01*
X0016900Y0121110D01*
X0016900Y0117490D01*
X0018221Y0114300D01*
X0016900Y0111110D01*
X0016900Y0107490D01*
X0018221Y0104300D01*
X0016900Y0101110D01*
X0016900Y0097490D01*
X0018285Y0094145D01*
X0020496Y0091934D01*
X0020347Y0091642D01*
X0020050Y0090728D01*
X0019900Y0089780D01*
X0019900Y0089500D01*
X0030100Y0089500D01*
X0030100Y0089100D01*
X0019900Y0089100D01*
X0019900Y0088820D01*
X0020050Y0087872D01*
X0020347Y0086958D01*
X0020783Y0086103D01*
X0021347Y0085326D01*
X0022026Y0084647D01*
X0022803Y0084083D01*
X0023658Y0083647D01*
X0024572Y0083350D01*
X0021751Y0084923D02*
X0006600Y0084923D01*
X0006600Y0086521D02*
X0020570Y0086521D01*
X0020011Y0088120D02*
X0006600Y0088120D01*
X0006600Y0089718D02*
X0019900Y0089718D01*
X0020241Y0091317D02*
X0006600Y0091317D01*
X0006600Y0092915D02*
X0019516Y0092915D01*
X0018133Y0094514D02*
X0006600Y0094514D01*
X0006600Y0096112D02*
X0017471Y0096112D01*
X0016900Y0097711D02*
X0006600Y0097711D01*
X0006600Y0099309D02*
X0016900Y0099309D01*
X0016900Y0100908D02*
X0006600Y0100908D01*
X0006600Y0102506D02*
X0017478Y0102506D01*
X0018140Y0104105D02*
X0006600Y0104105D01*
X0006600Y0105703D02*
X0017640Y0105703D01*
X0016978Y0107302D02*
X0006600Y0107302D01*
X0006600Y0108900D02*
X0016900Y0108900D01*
X0016900Y0110499D02*
X0006600Y0110499D01*
X0006600Y0112097D02*
X0017309Y0112097D01*
X0017971Y0113696D02*
X0006600Y0113696D01*
X0006600Y0115294D02*
X0017809Y0115294D01*
X0017147Y0116893D02*
X0006600Y0116893D01*
X0006600Y0118491D02*
X0016900Y0118491D01*
X0016900Y0120090D02*
X0006600Y0120090D01*
X0006600Y0121688D02*
X0017140Y0121688D01*
X0017802Y0123287D02*
X0006600Y0123287D01*
X0006600Y0124885D02*
X0017979Y0124885D01*
X0017317Y0126484D02*
X0006600Y0126484D01*
X0006600Y0128082D02*
X0016900Y0128082D01*
X0016900Y0129681D02*
X0006600Y0129681D01*
X0006600Y0131279D02*
X0016970Y0131279D01*
X0017632Y0132878D02*
X0006600Y0132878D01*
X0006600Y0134476D02*
X0018148Y0134476D01*
X0017486Y0136075D02*
X0006600Y0136075D01*
X0006600Y0137673D02*
X0016900Y0137673D01*
X0016900Y0139272D02*
X0006600Y0139272D01*
X0006600Y0140870D02*
X0016900Y0140870D01*
X0017463Y0142469D02*
X0006600Y0142469D01*
X0006600Y0144068D02*
X0018125Y0144068D01*
X0017655Y0145666D02*
X0006600Y0145666D01*
X0006600Y0147265D02*
X0016993Y0147265D01*
X0016900Y0148863D02*
X0006600Y0148863D01*
X0006600Y0150462D02*
X0016900Y0150462D01*
X0017293Y0152060D02*
X0006600Y0152060D01*
X0006600Y0153659D02*
X0017956Y0153659D01*
X0019088Y0155257D02*
X0006600Y0155257D01*
X0006600Y0156856D02*
X0020686Y0156856D01*
X0006600Y0158454D02*
X0078842Y0158454D01*
X0077244Y0160053D02*
X0006600Y0160053D01*
X0006600Y0161651D02*
X0076600Y0161651D01*
X0076600Y0163250D02*
X0006600Y0163250D01*
X0006600Y0164848D02*
X0076600Y0164848D01*
X0076600Y0166447D02*
X0006600Y0166447D01*
X0006600Y0168045D02*
X0076742Y0168045D01*
X0078340Y0169644D02*
X0006600Y0169644D01*
X0006600Y0171242D02*
X0079939Y0171242D01*
X0081537Y0172841D02*
X0006600Y0172841D01*
X0012344Y0179235D02*
X0182756Y0179235D01*
X0180695Y0180833D02*
X0014405Y0180833D01*
X0015438Y0182432D02*
X0179662Y0182432D01*
X0179031Y0184030D02*
X0016068Y0184030D01*
X0016068Y0185629D02*
X0179031Y0185629D01*
X0179272Y0187227D02*
X0015828Y0187227D01*
X0039914Y0156856D02*
X0080441Y0156856D01*
X0090159Y0156856D02*
X0135300Y0156856D01*
X0135300Y0156900D02*
X0135300Y0152320D01*
X0135450Y0151372D01*
X0135747Y0150458D01*
X0136183Y0149603D01*
X0136747Y0148826D01*
X0137426Y0148147D01*
X0138203Y0147583D01*
X0139058Y0147147D01*
X0139972Y0146850D01*
X0140920Y0146700D01*
X0141200Y0146700D01*
X0141200Y0156900D01*
X0141600Y0156900D01*
X0141600Y0157300D01*
X0147500Y0157300D01*
X0147500Y0161880D01*
X0147350Y0162828D01*
X0147053Y0163742D01*
X0146617Y0164597D01*
X0146053Y0165374D01*
X0145374Y0166053D01*
X0144597Y0166617D01*
X0143742Y0167053D01*
X0142828Y0167350D01*
X0141880Y0167500D01*
X0141600Y0167500D01*
X0141600Y0157300D01*
X0141200Y0157300D01*
X0141200Y0167500D01*
X0140920Y0167500D01*
X0139972Y0167350D01*
X0139058Y0167053D01*
X0138203Y0166617D01*
X0137426Y0166053D01*
X0136747Y0165374D01*
X0136183Y0164597D01*
X0135747Y0163742D01*
X0135450Y0162828D01*
X0135300Y0161880D01*
X0135300Y0157300D01*
X0141200Y0157300D01*
X0141200Y0156900D01*
X0135300Y0156900D01*
X0135300Y0158454D02*
X0091758Y0158454D01*
X0093356Y0160053D02*
X0101486Y0160053D01*
X0102939Y0158600D02*
X0099600Y0161939D01*
X0099600Y0164300D01*
X0105300Y0164300D01*
X0111000Y0164300D01*
X0111000Y0166661D01*
X0107661Y0170000D01*
X0105300Y0170000D01*
X0105300Y0164300D01*
X0105300Y0164300D01*
X0105300Y0164300D01*
X0111000Y0164300D01*
X0111000Y0161939D01*
X0107661Y0158600D01*
X0105300Y0158600D01*
X0105300Y0164300D01*
X0105300Y0164300D01*
X0105300Y0164300D01*
X0105300Y0170000D01*
X0102939Y0170000D01*
X0099600Y0166661D01*
X0099600Y0164300D01*
X0105300Y0164300D01*
X0105300Y0158600D01*
X0102939Y0158600D01*
X0105300Y0160053D02*
X0105300Y0160053D01*
X0105300Y0161651D02*
X0105300Y0161651D01*
X0105300Y0163250D02*
X0105300Y0163250D01*
X0105300Y0164848D02*
X0105300Y0164848D01*
X0105300Y0166447D02*
X0105300Y0166447D01*
X0105300Y0168045D02*
X0105300Y0168045D01*
X0105300Y0169644D02*
X0105300Y0169644D01*
X0108017Y0169644D02*
X0155323Y0169644D01*
X0152976Y0168045D02*
X0109616Y0168045D01*
X0111000Y0166447D02*
X0137968Y0166447D01*
X0136365Y0164848D02*
X0111000Y0164848D01*
X0111000Y0163250D02*
X0135587Y0163250D01*
X0135300Y0161651D02*
X0110712Y0161651D01*
X0109114Y0160053D02*
X0135300Y0160053D01*
X0135300Y0155257D02*
X0041512Y0155257D01*
X0042644Y0153659D02*
X0135300Y0153659D01*
X0135341Y0152060D02*
X0043307Y0152060D01*
X0043700Y0150462D02*
X0135746Y0150462D01*
X0136720Y0148863D02*
X0043700Y0148863D01*
X0043607Y0147265D02*
X0138828Y0147265D01*
X0141200Y0147265D02*
X0141600Y0147265D01*
X0141600Y0146700D02*
X0141880Y0146700D01*
X0142828Y0146850D01*
X0143742Y0147147D01*
X0144597Y0147583D01*
X0145374Y0148147D01*
X0146053Y0148826D01*
X0146617Y0149603D01*
X0147053Y0150458D01*
X0147350Y0151372D01*
X0147500Y0152320D01*
X0147500Y0156900D01*
X0141600Y0156900D01*
X0141600Y0146700D01*
X0141600Y0148863D02*
X0141200Y0148863D01*
X0141200Y0150462D02*
X0141600Y0150462D01*
X0141600Y0152060D02*
X0141200Y0152060D01*
X0141200Y0153659D02*
X0141600Y0153659D01*
X0141600Y0155257D02*
X0141200Y0155257D01*
X0141200Y0156856D02*
X0141600Y0156856D01*
X0141600Y0158454D02*
X0141200Y0158454D01*
X0141200Y0160053D02*
X0141600Y0160053D01*
X0141600Y0161651D02*
X0141200Y0161651D01*
X0141200Y0163250D02*
X0141600Y0163250D01*
X0141600Y0164848D02*
X0141200Y0164848D01*
X0141200Y0166447D02*
X0141600Y0166447D01*
X0144832Y0166447D02*
X0151441Y0166447D01*
X0150779Y0164848D02*
X0146435Y0164848D01*
X0147213Y0163250D02*
X0150116Y0163250D01*
X0150100Y0161651D02*
X0147500Y0161651D01*
X0147500Y0160053D02*
X0150100Y0160053D01*
X0150100Y0158454D02*
X0147500Y0158454D01*
X0147500Y0156856D02*
X0150100Y0156856D01*
X0150100Y0155257D02*
X0147500Y0155257D01*
X0147500Y0153659D02*
X0150100Y0153659D01*
X0150100Y0152060D02*
X0147459Y0152060D01*
X0147054Y0150462D02*
X0150319Y0150462D01*
X0150981Y0148863D02*
X0146080Y0148863D01*
X0143972Y0147265D02*
X0151866Y0147265D01*
X0153465Y0145666D02*
X0042945Y0145666D01*
X0042475Y0144068D02*
X0155380Y0144068D01*
X0153000Y0142469D02*
X0087919Y0142469D01*
X0089138Y0140870D02*
X0138001Y0140870D01*
X0138203Y0141017D02*
X0137426Y0140453D01*
X0136747Y0139774D01*
X0136183Y0138997D01*
X0135747Y0138142D01*
X0135450Y0137228D01*
X0135300Y0136280D01*
X0135300Y0131700D01*
X0141200Y0131700D01*
X0141200Y0141900D01*
X0140920Y0141900D01*
X0139972Y0141750D01*
X0139058Y0141453D01*
X0138203Y0141017D01*
X0136383Y0139272D02*
X0114175Y0139272D01*
X0115636Y0137673D02*
X0135595Y0137673D01*
X0135300Y0136075D02*
X0116347Y0136075D01*
X0116453Y0132878D02*
X0135300Y0132878D01*
X0135300Y0131300D02*
X0135300Y0126720D01*
X0135450Y0125772D01*
X0135747Y0124858D01*
X0136183Y0124003D01*
X0136747Y0123226D01*
X0137426Y0122547D01*
X0138203Y0121983D01*
X0139058Y0121547D01*
X0139972Y0121250D01*
X0140920Y0121100D01*
X0141200Y0121100D01*
X0141200Y0131300D01*
X0141600Y0131300D01*
X0141600Y0131700D01*
X0147500Y0131700D01*
X0147500Y0136280D01*
X0147350Y0137228D01*
X0147053Y0138142D01*
X0146617Y0138997D01*
X0146053Y0139774D01*
X0145374Y0140453D01*
X0144597Y0141017D01*
X0143742Y0141453D01*
X0142828Y0141750D01*
X0141880Y0141900D01*
X0141600Y0141900D01*
X0141600Y0131700D01*
X0141200Y0131700D01*
X0141200Y0131300D01*
X0135300Y0131300D01*
X0135300Y0131279D02*
X0116473Y0131279D01*
X0118071Y0129681D02*
X0135300Y0129681D01*
X0135300Y0128082D02*
X0118800Y0128082D01*
X0119462Y0126484D02*
X0135337Y0126484D01*
X0135738Y0124885D02*
X0119600Y0124885D01*
X0119600Y0123287D02*
X0136703Y0123287D01*
X0138781Y0121688D02*
X0119284Y0121688D01*
X0118622Y0120090D02*
X0153441Y0120090D01*
X0151842Y0121688D02*
X0144019Y0121688D01*
X0143742Y0121547D02*
X0144597Y0121983D01*
X0145374Y0122547D01*
X0146053Y0123226D01*
X0146617Y0124003D01*
X0147053Y0124858D01*
X0147350Y0125772D01*
X0147500Y0126720D01*
X0147500Y0131300D01*
X0141600Y0131300D01*
X0141600Y0121100D01*
X0141880Y0121100D01*
X0142828Y0121250D01*
X0143742Y0121547D01*
X0141600Y0121688D02*
X0141200Y0121688D01*
X0141200Y0123287D02*
X0141600Y0123287D01*
X0141600Y0124885D02*
X0141200Y0124885D01*
X0141200Y0126484D02*
X0141600Y0126484D01*
X0141600Y0128082D02*
X0141200Y0128082D01*
X0141200Y0129681D02*
X0141600Y0129681D01*
X0141600Y0131279D02*
X0141200Y0131279D01*
X0141200Y0132878D02*
X0141600Y0132878D01*
X0141600Y0134476D02*
X0141200Y0134476D01*
X0141200Y0136075D02*
X0141600Y0136075D01*
X0141600Y0137673D02*
X0141200Y0137673D01*
X0141200Y0139272D02*
X0141600Y0139272D01*
X0141600Y0140870D02*
X0141200Y0140870D01*
X0144799Y0140870D02*
X0151451Y0140870D01*
X0150788Y0139272D02*
X0146417Y0139272D01*
X0147205Y0137673D02*
X0150126Y0137673D01*
X0150100Y0136075D02*
X0147500Y0136075D01*
X0147500Y0134476D02*
X0150100Y0134476D01*
X0150100Y0132878D02*
X0147500Y0132878D01*
X0147500Y0131279D02*
X0150100Y0131279D01*
X0150100Y0129681D02*
X0147500Y0129681D01*
X0147500Y0128082D02*
X0150100Y0128082D01*
X0150100Y0126484D02*
X0147463Y0126484D01*
X0147062Y0124885D02*
X0150309Y0124885D01*
X0150971Y0123287D02*
X0146097Y0123287D01*
X0142661Y0115000D02*
X0140300Y0115000D01*
X0140300Y0109300D01*
X0146000Y0109300D01*
X0146000Y0111661D01*
X0142661Y0115000D01*
X0143965Y0113696D02*
X0152392Y0113696D01*
X0151600Y0112097D02*
X0145564Y0112097D01*
X0146000Y0110499D02*
X0151600Y0110499D01*
X0151600Y0108900D02*
X0146000Y0108900D01*
X0146000Y0109300D02*
X0146000Y0106939D01*
X0142661Y0103600D01*
X0140300Y0103600D01*
X0140300Y0109300D01*
X0140300Y0109300D01*
X0140300Y0109300D01*
X0146000Y0109300D01*
X0146000Y0107302D02*
X0151600Y0107302D01*
X0151600Y0105703D02*
X0144764Y0105703D01*
X0143166Y0104105D02*
X0153192Y0104105D01*
X0154790Y0102506D02*
X0119600Y0102506D01*
X0119600Y0104105D02*
X0137434Y0104105D01*
X0137939Y0103600D02*
X0140300Y0103600D01*
X0140300Y0109300D01*
X0140300Y0109300D01*
X0140300Y0109300D01*
X0134600Y0109300D01*
X0134600Y0111661D01*
X0137939Y0115000D01*
X0140300Y0115000D01*
X0140300Y0109300D01*
X0134600Y0109300D01*
X0134600Y0106939D01*
X0137939Y0103600D01*
X0135836Y0105703D02*
X0119600Y0105703D01*
X0119123Y0107302D02*
X0134600Y0107302D01*
X0134600Y0108900D02*
X0118461Y0108900D01*
X0118792Y0110499D02*
X0134600Y0110499D01*
X0135036Y0112097D02*
X0119454Y0112097D01*
X0119600Y0113696D02*
X0136635Y0113696D01*
X0140300Y0113696D02*
X0140300Y0113696D01*
X0140300Y0112097D02*
X0140300Y0112097D01*
X0140300Y0110499D02*
X0140300Y0110499D01*
X0140300Y0108900D02*
X0140300Y0108900D01*
X0140300Y0107302D02*
X0140300Y0107302D01*
X0140300Y0105703D02*
X0140300Y0105703D01*
X0140300Y0104105D02*
X0140300Y0104105D01*
X0149193Y0097711D02*
X0161407Y0097711D01*
X0161696Y0098000D02*
X0156600Y0092904D01*
X0156600Y0085696D01*
X0161696Y0080600D01*
X0168904Y0080600D01*
X0174000Y0085696D01*
X0174000Y0092904D01*
X0168904Y0098000D01*
X0161696Y0098000D01*
X0159809Y0096112D02*
X0150791Y0096112D01*
X0152390Y0094514D02*
X0158210Y0094514D01*
X0156612Y0092915D02*
X0153988Y0092915D01*
X0154000Y0091317D02*
X0156600Y0091317D01*
X0156600Y0089718D02*
X0154000Y0089718D01*
X0154000Y0088120D02*
X0156600Y0088120D01*
X0156600Y0086521D02*
X0154000Y0086521D01*
X0153226Y0084923D02*
X0157374Y0084923D01*
X0158972Y0083324D02*
X0151628Y0083324D01*
X0150029Y0081726D02*
X0160571Y0081726D01*
X0170029Y0081726D02*
X0188201Y0081726D01*
X0188201Y0083324D02*
X0171628Y0083324D01*
X0173226Y0084923D02*
X0188201Y0084923D01*
X0188201Y0086521D02*
X0174000Y0086521D01*
X0174000Y0088120D02*
X0188201Y0088120D01*
X0188201Y0089718D02*
X0174000Y0089718D01*
X0174000Y0091317D02*
X0188201Y0091317D01*
X0188201Y0092915D02*
X0173988Y0092915D01*
X0172390Y0094514D02*
X0188201Y0094514D01*
X0188201Y0096112D02*
X0170791Y0096112D01*
X0169193Y0097711D02*
X0188201Y0097711D01*
X0188201Y0080127D02*
X0118638Y0080127D01*
X0118615Y0078529D02*
X0188201Y0078529D01*
X0188201Y0076930D02*
X0119277Y0076930D01*
X0119600Y0075332D02*
X0188201Y0075332D01*
X0156389Y0100908D02*
X0118961Y0100908D01*
X0119600Y0115294D02*
X0153991Y0115294D01*
X0155589Y0116893D02*
X0119292Y0116893D01*
X0118630Y0118491D02*
X0156445Y0118491D01*
X0135300Y0134476D02*
X0110600Y0134476D01*
X0110000Y0134476D02*
X0089600Y0134476D01*
X0089600Y0132878D02*
X0104147Y0132878D01*
X0104127Y0131279D02*
X0089600Y0131279D01*
X0089600Y0129681D02*
X0102529Y0129681D01*
X0101800Y0128082D02*
X0089284Y0128082D01*
X0089462Y0126484D02*
X0101138Y0126484D01*
X0101000Y0124885D02*
X0089600Y0124885D01*
X0089600Y0123287D02*
X0101000Y0123287D01*
X0101316Y0121688D02*
X0089284Y0121688D01*
X0088622Y0120090D02*
X0101978Y0120090D01*
X0101970Y0118491D02*
X0088630Y0118491D01*
X0089292Y0116893D02*
X0101308Y0116893D01*
X0101000Y0115294D02*
X0089600Y0115294D01*
X0089600Y0113696D02*
X0101000Y0113696D01*
X0101146Y0112097D02*
X0089454Y0112097D01*
X0088792Y0110499D02*
X0101808Y0110499D01*
X0102139Y0108900D02*
X0088461Y0108900D01*
X0089123Y0107302D02*
X0101477Y0107302D01*
X0101000Y0105703D02*
X0089600Y0105703D01*
X0089600Y0104105D02*
X0101000Y0104105D01*
X0101000Y0102506D02*
X0089600Y0102506D01*
X0088961Y0100908D02*
X0101639Y0100908D01*
X0102301Y0099309D02*
X0088299Y0099309D01*
X0088953Y0097711D02*
X0101647Y0097711D01*
X0101000Y0096112D02*
X0089600Y0096112D01*
X0089600Y0094514D02*
X0101000Y0094514D01*
X0101000Y0092915D02*
X0089600Y0092915D01*
X0089130Y0091317D02*
X0101470Y0091317D01*
X0102132Y0089718D02*
X0088468Y0089718D01*
X0088784Y0088120D02*
X0101816Y0088120D01*
X0101154Y0086521D02*
X0089446Y0086521D01*
X0089600Y0084923D02*
X0101000Y0084923D01*
X0101000Y0083324D02*
X0089600Y0083324D01*
X0089300Y0081726D02*
X0101300Y0081726D01*
X0101962Y0080127D02*
X0088638Y0080127D01*
X0088615Y0078529D02*
X0101985Y0078529D01*
X0101323Y0076930D02*
X0089277Y0076930D01*
X0089600Y0075332D02*
X0101000Y0075332D01*
X0101000Y0073733D02*
X0089600Y0073733D01*
X0089469Y0072134D02*
X0101131Y0072134D01*
X0101793Y0070536D02*
X0088807Y0070536D01*
X0088445Y0068937D02*
X0102155Y0068937D01*
X0101493Y0067339D02*
X0089107Y0067339D01*
X0089600Y0065740D02*
X0101000Y0065740D01*
X0101000Y0064142D02*
X0089600Y0064142D01*
X0089600Y0062543D02*
X0101000Y0062543D01*
X0101623Y0060945D02*
X0088977Y0060945D01*
X0088314Y0059346D02*
X0102286Y0059346D01*
X0101662Y0057748D02*
X0088938Y0057748D01*
X0089600Y0056149D02*
X0101000Y0056149D01*
X0101000Y0054551D02*
X0089600Y0054551D01*
X0089600Y0052952D02*
X0101000Y0052952D01*
X0101454Y0051354D02*
X0089146Y0051354D01*
X0088484Y0049755D02*
X0102116Y0049755D01*
X0101831Y0048157D02*
X0088769Y0048157D01*
X0089431Y0046558D02*
X0101169Y0046558D01*
X0101000Y0044960D02*
X0089600Y0044960D01*
X0089600Y0043361D02*
X0101000Y0043361D01*
X0101285Y0041763D02*
X0089315Y0041763D01*
X0088653Y0040164D02*
X0101947Y0040164D01*
X0102882Y0038566D02*
X0087718Y0038566D01*
X0086119Y0036967D02*
X0104481Y0036967D01*
X0107560Y0035369D02*
X0083040Y0035369D01*
X0113040Y0035369D02*
X0136900Y0035369D01*
X0137255Y0036967D02*
X0116119Y0036967D01*
X0117718Y0038566D02*
X0137917Y0038566D01*
X0137863Y0040164D02*
X0118653Y0040164D01*
X0119315Y0041763D02*
X0137201Y0041763D01*
X0136900Y0043361D02*
X0119600Y0043361D01*
X0119600Y0044960D02*
X0136900Y0044960D01*
X0137086Y0046558D02*
X0119431Y0046558D01*
X0118769Y0048157D02*
X0137748Y0048157D01*
X0138033Y0049755D02*
X0118484Y0049755D01*
X0119146Y0051354D02*
X0137371Y0051354D01*
X0136900Y0052952D02*
X0119600Y0052952D01*
X0119600Y0054551D02*
X0136900Y0054551D01*
X0136916Y0056149D02*
X0119600Y0056149D01*
X0118938Y0057748D02*
X0137578Y0057748D01*
X0138202Y0059346D02*
X0118314Y0059346D01*
X0118977Y0060945D02*
X0137540Y0060945D01*
X0136900Y0062543D02*
X0119600Y0062543D01*
X0119600Y0064142D02*
X0136900Y0064142D01*
X0136900Y0065740D02*
X0119600Y0065740D01*
X0119107Y0067339D02*
X0137409Y0067339D01*
X0138071Y0068937D02*
X0118445Y0068937D01*
X0118807Y0070536D02*
X0139367Y0070536D01*
X0150100Y0012990D02*
X0150500Y0012990D01*
X0150500Y0011391D02*
X0150100Y0011391D01*
X0150100Y0009793D02*
X0150500Y0009793D01*
X0071000Y0083324D02*
X0035863Y0083324D01*
X0036028Y0083350D02*
X0036942Y0083647D01*
X0037797Y0084083D01*
X0038574Y0084647D01*
X0039253Y0085326D01*
X0039817Y0086103D01*
X0040253Y0086958D01*
X0040550Y0087872D01*
X0040700Y0088820D01*
X0040700Y0089100D01*
X0030500Y0089100D01*
X0030500Y0083200D01*
X0035080Y0083200D01*
X0036028Y0083350D01*
X0038849Y0084923D02*
X0071000Y0084923D01*
X0071154Y0086521D02*
X0040030Y0086521D01*
X0040589Y0088120D02*
X0071816Y0088120D01*
X0072132Y0089718D02*
X0040700Y0089718D01*
X0040359Y0091317D02*
X0071470Y0091317D01*
X0071000Y0092915D02*
X0041084Y0092915D01*
X0042467Y0094514D02*
X0071000Y0094514D01*
X0071000Y0096112D02*
X0043129Y0096112D01*
X0043700Y0097711D02*
X0071647Y0097711D01*
X0072301Y0099309D02*
X0043700Y0099309D01*
X0043700Y0100908D02*
X0071639Y0100908D01*
X0071000Y0102506D02*
X0043122Y0102506D01*
X0042460Y0104105D02*
X0071000Y0104105D01*
X0071000Y0105703D02*
X0042960Y0105703D01*
X0043622Y0107302D02*
X0071477Y0107302D01*
X0072139Y0108900D02*
X0043700Y0108900D01*
X0043700Y0110499D02*
X0071808Y0110499D01*
X0071146Y0112097D02*
X0043291Y0112097D01*
X0042629Y0113696D02*
X0071000Y0113696D01*
X0071000Y0115294D02*
X0042791Y0115294D01*
X0043453Y0116893D02*
X0071308Y0116893D01*
X0071970Y0118491D02*
X0043700Y0118491D01*
X0043700Y0120090D02*
X0071978Y0120090D01*
X0071316Y0121688D02*
X0043460Y0121688D01*
X0042798Y0123287D02*
X0071000Y0123287D01*
X0071000Y0124885D02*
X0042621Y0124885D01*
X0043283Y0126484D02*
X0071138Y0126484D01*
X0071316Y0128082D02*
X0043700Y0128082D01*
X0043700Y0129681D02*
X0071000Y0129681D01*
X0071000Y0131279D02*
X0043630Y0131279D01*
X0042968Y0132878D02*
X0071000Y0132878D01*
X0071000Y0134476D02*
X0042452Y0134476D01*
X0043114Y0136075D02*
X0071000Y0136075D01*
X0071000Y0137673D02*
X0043700Y0137673D01*
X0043700Y0139272D02*
X0071000Y0139272D01*
X0071462Y0140870D02*
X0043700Y0140870D01*
X0043137Y0142469D02*
X0072681Y0142469D01*
X0089600Y0139272D02*
X0106425Y0139272D01*
X0104964Y0137673D02*
X0089600Y0137673D01*
X0089600Y0136075D02*
X0104253Y0136075D01*
X0110000Y0136075D02*
X0110600Y0136075D01*
X0110600Y0137673D02*
X0110000Y0137673D01*
X0110000Y0139272D02*
X0110600Y0139272D01*
X0099888Y0161651D02*
X0094000Y0161651D01*
X0094000Y0163250D02*
X0099600Y0163250D01*
X0099600Y0164848D02*
X0094000Y0164848D01*
X0094000Y0166447D02*
X0099600Y0166447D01*
X0100984Y0168045D02*
X0093858Y0168045D01*
X0092260Y0169644D02*
X0102583Y0169644D01*
X0030500Y0088120D02*
X0030100Y0088120D01*
X0030100Y0086521D02*
X0030500Y0086521D01*
X0030500Y0084923D02*
X0030100Y0084923D01*
X0030100Y0083324D02*
X0030500Y0083324D01*
D15*
X0035300Y0074300D03*
X0035300Y0029300D03*
X0122800Y0149300D03*
M02*
