G75*
%MOIN*%
%OFA0B0*%
%FSLAX25Y25*%
%IPPOS*%
%LPD*%
%AMOC8*
5,1,8,0,0,1.08239X$1,22.5*
%
%ADD10C,0.00512*%
%ADD11C,0.00600*%
%ADD12OC8,0.06300*%
%ADD13C,0.06693*%
%ADD14C,0.04362*%
%ADD15R,0.06600X0.06600*%
%ADD16C,0.06600*%
%ADD17C,0.05937*%
%ADD18C,0.01600*%
%ADD19C,0.04000*%
D10*
X0186259Y0008000D02*
X0213935Y0008124D01*
X0206257Y0008346D02*
X0207469Y0018331D01*
X0204955Y0018320D01*
X0206257Y0008346D01*
X0205189Y0018321D01*
X0205701Y0018323D02*
X0206257Y0008346D01*
X0207236Y0018330D01*
X0206724Y0018328D02*
X0206257Y0008346D01*
X0204960Y0297794D01*
X0203981Y0287810D01*
X0203748Y0287809D02*
X0204960Y0297794D01*
X0206028Y0287819D01*
X0206262Y0287820D02*
X0203748Y0287809D01*
X0204493Y0287812D02*
X0204960Y0297794D01*
X0205517Y0287816D01*
X0206262Y0287820D02*
X0204960Y0297794D01*
X0212636Y0298085D02*
X0184959Y0297961D01*
X0186259Y0298000D02*
X0186256Y0310677D01*
X0186002Y0303000D02*
X0176022Y0301974D01*
X0176022Y0301741D02*
X0186002Y0303000D01*
X0176021Y0304021D01*
X0176021Y0304255D02*
X0176022Y0301741D01*
X0176021Y0302486D02*
X0186002Y0303000D01*
X0176021Y0303510D01*
X0176021Y0304255D02*
X0186002Y0303000D01*
X0001513Y0302961D01*
X0011494Y0301939D01*
X0011494Y0301706D02*
X0001513Y0302961D01*
X0011494Y0303986D01*
X0011493Y0304220D02*
X0011494Y0301706D01*
X0011494Y0302451D02*
X0001513Y0302961D01*
X0011494Y0303475D01*
X0011493Y0304220D02*
X0001513Y0302961D01*
X0001259Y0297961D02*
X0001256Y0310638D01*
D11*
X0084288Y0309810D02*
X0086423Y0311946D01*
X0086423Y0305540D01*
X0084288Y0305540D02*
X0088558Y0305540D01*
X0090733Y0305540D02*
X0090733Y0306608D01*
X0091801Y0306608D01*
X0091801Y0305540D01*
X0090733Y0305540D01*
X0093956Y0306608D02*
X0095024Y0305540D01*
X0097159Y0305540D01*
X0098226Y0306608D01*
X0098226Y0307675D01*
X0097159Y0308743D01*
X0095024Y0308743D01*
X0093956Y0309810D01*
X0093956Y0310878D01*
X0095024Y0311946D01*
X0097159Y0311946D01*
X0098226Y0310878D01*
X0098226Y0309810D01*
X0097159Y0308743D01*
X0095024Y0308743D02*
X0093956Y0307675D01*
X0093956Y0306608D01*
X0100402Y0306608D02*
X0101469Y0305540D01*
X0103604Y0305540D01*
X0104672Y0306608D01*
X0104672Y0308743D01*
X0103604Y0309810D01*
X0102537Y0309810D01*
X0100402Y0308743D01*
X0100402Y0311946D01*
X0104672Y0311946D01*
X0208141Y0159757D02*
X0212433Y0155509D01*
X0213501Y0155515D01*
X0214563Y0156588D01*
X0214552Y0158723D01*
X0213479Y0159785D01*
X0208141Y0159757D02*
X0208163Y0155487D01*
X0208174Y0153312D02*
X0208180Y0152244D01*
X0209248Y0152250D01*
X0209242Y0153317D01*
X0208174Y0153312D01*
X0209259Y0150095D02*
X0208197Y0149021D01*
X0208208Y0146886D01*
X0209281Y0145824D01*
X0213551Y0145847D01*
X0214613Y0146920D01*
X0214602Y0149055D01*
X0213529Y0150117D01*
X0212462Y0150111D01*
X0211400Y0149038D01*
X0211416Y0145835D01*
D12*
X0151259Y0258000D03*
X0131259Y0258000D03*
X0056259Y0258000D03*
X0036259Y0258000D03*
X0086259Y0088000D03*
X0106259Y0088000D03*
D13*
X0126259Y0188000D03*
X0156259Y0188000D03*
X0061259Y0188000D03*
X0031259Y0188000D03*
D14*
X0036416Y0215819D02*
X0036416Y0220181D01*
X0056101Y0220181D02*
X0056101Y0215819D01*
X0131416Y0215819D02*
X0131416Y0220181D01*
X0151101Y0220181D02*
X0151101Y0215819D01*
D15*
X0126259Y0163000D03*
X0031259Y0163000D03*
D16*
X0031259Y0153000D03*
X0031259Y0143000D03*
X0031259Y0133000D03*
X0031259Y0123000D03*
X0031259Y0113000D03*
X0031259Y0103000D03*
X0031259Y0093000D03*
X0061259Y0093000D03*
X0061259Y0103000D03*
X0061259Y0113000D03*
X0061259Y0123000D03*
X0061259Y0133000D03*
X0061259Y0143000D03*
X0061259Y0153000D03*
X0061259Y0163000D03*
X0126259Y0153000D03*
X0126259Y0143000D03*
X0126259Y0133000D03*
X0126259Y0123000D03*
X0126259Y0113000D03*
X0126259Y0103000D03*
X0126259Y0093000D03*
X0156259Y0093000D03*
X0156259Y0103000D03*
X0156259Y0113000D03*
X0156259Y0123000D03*
X0156259Y0133000D03*
X0156259Y0143000D03*
X0156259Y0153000D03*
X0156259Y0163000D03*
D17*
X0101259Y0270031D02*
X0101259Y0275969D01*
X0091259Y0275969D02*
X0091259Y0270031D01*
X0081259Y0270031D02*
X0081259Y0275969D01*
X0091259Y0025969D02*
X0091259Y0020031D01*
X0101259Y0020031D02*
X0101259Y0025969D01*
D18*
X0046259Y0012800D02*
X0046259Y0058000D01*
X0091259Y0058000D01*
X0091259Y0023184D01*
X0091074Y0023184D01*
X0091074Y0022816D01*
X0086490Y0022816D01*
X0086490Y0019656D01*
X0086608Y0018915D01*
X0086839Y0018201D01*
X0087180Y0017532D01*
X0087621Y0016925D01*
X0088152Y0016394D01*
X0088759Y0015953D01*
X0089428Y0015612D01*
X0090142Y0015380D01*
X0090883Y0015263D01*
X0091074Y0015263D01*
X0091074Y0022816D01*
X0091259Y0022816D01*
X0091259Y0012800D01*
X0046259Y0012800D01*
X0046259Y0014394D02*
X0091259Y0014394D01*
X0091259Y0015993D02*
X0091074Y0015993D01*
X0091074Y0017591D02*
X0091259Y0017591D01*
X0091259Y0019190D02*
X0091074Y0019190D01*
X0091074Y0020788D02*
X0091259Y0020788D01*
X0091259Y0022387D02*
X0091074Y0022387D01*
X0091074Y0023184D02*
X0086490Y0023184D01*
X0086490Y0026344D01*
X0086608Y0027085D01*
X0086839Y0027799D01*
X0087180Y0028468D01*
X0087621Y0029075D01*
X0088152Y0029606D01*
X0088759Y0030047D01*
X0089428Y0030388D01*
X0090142Y0030620D01*
X0090883Y0030737D01*
X0091074Y0030737D01*
X0091074Y0023184D01*
X0091074Y0023985D02*
X0091259Y0023985D01*
X0091259Y0025584D02*
X0091074Y0025584D01*
X0091074Y0027182D02*
X0091259Y0027182D01*
X0091259Y0028781D02*
X0091074Y0028781D01*
X0091074Y0030379D02*
X0091259Y0030379D01*
X0091259Y0031978D02*
X0046259Y0031978D01*
X0046259Y0033576D02*
X0091259Y0033576D01*
X0091259Y0035175D02*
X0046259Y0035175D01*
X0046259Y0036773D02*
X0091259Y0036773D01*
X0091259Y0038372D02*
X0046259Y0038372D01*
X0046259Y0039970D02*
X0091259Y0039970D01*
X0091259Y0041569D02*
X0046259Y0041569D01*
X0046259Y0043167D02*
X0091259Y0043167D01*
X0091259Y0044766D02*
X0046259Y0044766D01*
X0046259Y0046364D02*
X0091259Y0046364D01*
X0091259Y0047963D02*
X0046259Y0047963D01*
X0046259Y0049561D02*
X0091259Y0049561D01*
X0091259Y0051160D02*
X0046259Y0051160D01*
X0046259Y0052758D02*
X0091259Y0052758D01*
X0091259Y0054357D02*
X0046259Y0054357D01*
X0046259Y0055955D02*
X0091259Y0055955D01*
X0091259Y0057554D02*
X0046259Y0057554D01*
X0046259Y0030379D02*
X0089411Y0030379D01*
X0087408Y0028781D02*
X0046259Y0028781D01*
X0046259Y0027182D02*
X0086639Y0027182D01*
X0086490Y0025584D02*
X0046259Y0025584D01*
X0046259Y0023985D02*
X0086490Y0023985D01*
X0086490Y0022387D02*
X0046259Y0022387D01*
X0046259Y0020788D02*
X0086490Y0020788D01*
X0086564Y0019190D02*
X0046259Y0019190D01*
X0046259Y0017591D02*
X0087150Y0017591D01*
X0088705Y0015993D02*
X0046259Y0015993D01*
X0101259Y0015993D02*
X0101443Y0015993D01*
X0101443Y0015263D02*
X0101634Y0015263D01*
X0102375Y0015380D01*
X0103089Y0015612D01*
X0103758Y0015953D01*
X0104365Y0016394D01*
X0104896Y0016925D01*
X0105337Y0017532D01*
X0105678Y0018201D01*
X0105910Y0018915D01*
X0106027Y0019656D01*
X0106027Y0022816D01*
X0101443Y0022816D01*
X0101443Y0023184D01*
X0106027Y0023184D01*
X0106027Y0026344D01*
X0105910Y0027085D01*
X0105678Y0027799D01*
X0105337Y0028468D01*
X0104896Y0029075D01*
X0104365Y0029606D01*
X0103758Y0030047D01*
X0103089Y0030388D01*
X0102375Y0030620D01*
X0101634Y0030737D01*
X0101443Y0030737D01*
X0101443Y0023184D01*
X0101259Y0023184D01*
X0101259Y0058000D01*
X0146259Y0058000D01*
X0146259Y0012800D01*
X0101259Y0012800D01*
X0101259Y0022816D01*
X0101443Y0022816D01*
X0101443Y0015263D01*
X0101259Y0014394D02*
X0146259Y0014394D01*
X0146259Y0015993D02*
X0103812Y0015993D01*
X0105367Y0017591D02*
X0146259Y0017591D01*
X0146259Y0019190D02*
X0105953Y0019190D01*
X0106027Y0020788D02*
X0146259Y0020788D01*
X0146259Y0022387D02*
X0106027Y0022387D01*
X0106027Y0023985D02*
X0146259Y0023985D01*
X0146259Y0025584D02*
X0106027Y0025584D01*
X0105878Y0027182D02*
X0146259Y0027182D01*
X0146259Y0028781D02*
X0105110Y0028781D01*
X0103106Y0030379D02*
X0146259Y0030379D01*
X0146259Y0031978D02*
X0101259Y0031978D01*
X0101259Y0033576D02*
X0146259Y0033576D01*
X0146259Y0035175D02*
X0101259Y0035175D01*
X0101259Y0036773D02*
X0146259Y0036773D01*
X0146259Y0038372D02*
X0101259Y0038372D01*
X0101259Y0039970D02*
X0146259Y0039970D01*
X0146259Y0041569D02*
X0101259Y0041569D01*
X0101259Y0043167D02*
X0146259Y0043167D01*
X0146259Y0044766D02*
X0101259Y0044766D01*
X0101259Y0046364D02*
X0146259Y0046364D01*
X0146259Y0047963D02*
X0101259Y0047963D01*
X0101259Y0049561D02*
X0146259Y0049561D01*
X0146259Y0051160D02*
X0101259Y0051160D01*
X0101259Y0052758D02*
X0146259Y0052758D01*
X0146259Y0054357D02*
X0101259Y0054357D01*
X0101259Y0055955D02*
X0146259Y0055955D01*
X0146259Y0057554D02*
X0101259Y0057554D01*
X0101259Y0030379D02*
X0101443Y0030379D01*
X0101443Y0028781D02*
X0101259Y0028781D01*
X0101259Y0027182D02*
X0101443Y0027182D01*
X0101443Y0025584D02*
X0101259Y0025584D01*
X0101259Y0023985D02*
X0101443Y0023985D01*
X0101443Y0022387D02*
X0101259Y0022387D01*
X0101259Y0020788D02*
X0101443Y0020788D01*
X0101443Y0019190D02*
X0101259Y0019190D01*
X0101259Y0017591D02*
X0101443Y0017591D01*
D19*
X0106259Y0058000D02*
X0106259Y0088000D01*
X0116259Y0103000D02*
X0116259Y0220500D01*
X0132509Y0236750D01*
X0151259Y0218000D01*
X0151101Y0218000D01*
X0161259Y0193000D02*
X0156259Y0188000D01*
X0146259Y0178000D01*
X0146259Y0123000D01*
X0126259Y0123000D01*
X0126259Y0103000D02*
X0116259Y0103000D01*
X0126259Y0143000D02*
X0136259Y0143000D01*
X0136259Y0178000D01*
X0126259Y0188000D01*
X0126259Y0213000D01*
X0131259Y0218000D01*
X0131416Y0218000D01*
X0132509Y0236750D02*
X0131259Y0238000D01*
X0131259Y0258000D01*
X0151259Y0258000D02*
X0161259Y0248000D01*
X0161259Y0193000D01*
X0156259Y0133000D02*
X0156259Y0123000D01*
X0146259Y0123000D01*
X0086259Y0088000D02*
X0086259Y0058000D01*
X0086259Y0088000D02*
X0086259Y0163000D01*
X0061259Y0163000D01*
X0051259Y0178000D02*
X0051259Y0123000D01*
X0031259Y0123000D01*
X0031259Y0103000D02*
X0021259Y0103000D01*
X0021259Y0220500D01*
X0037509Y0236750D01*
X0056259Y0218000D01*
X0056101Y0218000D01*
X0037509Y0236750D02*
X0036259Y0238000D01*
X0036259Y0258000D01*
X0056259Y0258000D02*
X0066259Y0248000D01*
X0066259Y0193000D01*
X0061259Y0188000D01*
X0051259Y0178000D01*
X0041259Y0178000D02*
X0031259Y0188000D01*
X0031259Y0213000D01*
X0036259Y0218000D01*
X0036416Y0218000D01*
X0041259Y0178000D02*
X0041259Y0143000D01*
X0031259Y0143000D01*
X0051259Y0123000D02*
X0061259Y0123000D01*
X0061259Y0133000D01*
M02*
