G75*
%MOIN*%
%OFA0B0*%
%FSLAX25Y25*%
%IPPOS*%
%LPD*%
%AMOC8*
5,1,8,0,0,1.08239X$1,22.5*
%
%ADD10OC8,0.07800*%
%ADD11C,0.08931*%
%ADD12C,0.06962*%
%ADD13R,0.09000X0.09000*%
%ADD14C,0.09000*%
%ADD15C,0.08537*%
%ADD16C,0.01600*%
%ADD17C,0.04000*%
D10*
X0086259Y0088000D03*
X0106259Y0088000D03*
X0131259Y0258000D03*
X0151259Y0258000D03*
X0056259Y0258000D03*
X0036259Y0258000D03*
D11*
X0031259Y0188000D03*
X0061259Y0188000D03*
X0126259Y0188000D03*
X0156259Y0188000D03*
D12*
X0151101Y0214519D02*
X0151101Y0221481D01*
X0131416Y0221481D02*
X0131416Y0214519D01*
X0056101Y0214519D02*
X0056101Y0221481D01*
X0036416Y0221481D02*
X0036416Y0214519D01*
D13*
X0031259Y0163000D03*
X0126259Y0163000D03*
D14*
X0126259Y0153000D03*
X0126259Y0143000D03*
X0126259Y0133000D03*
X0126259Y0123000D03*
X0126259Y0113000D03*
X0126259Y0103000D03*
X0126259Y0093000D03*
X0156259Y0093000D03*
X0156259Y0103000D03*
X0156259Y0113000D03*
X0156259Y0123000D03*
X0156259Y0133000D03*
X0156259Y0143000D03*
X0156259Y0153000D03*
X0156259Y0163000D03*
X0061259Y0163000D03*
X0061259Y0153000D03*
X0061259Y0143000D03*
X0061259Y0133000D03*
X0061259Y0123000D03*
X0061259Y0113000D03*
X0061259Y0103000D03*
X0061259Y0093000D03*
X0031259Y0093000D03*
X0031259Y0103000D03*
X0031259Y0113000D03*
X0031259Y0123000D03*
X0031259Y0133000D03*
X0031259Y0143000D03*
X0031259Y0153000D03*
D15*
X0081259Y0268731D02*
X0081259Y0277269D01*
X0091259Y0277269D02*
X0091259Y0268731D01*
X0101259Y0268731D02*
X0101259Y0277269D01*
X0101259Y0027269D02*
X0101259Y0018731D01*
X0091259Y0018731D02*
X0091259Y0027269D01*
D16*
X0046259Y0012800D02*
X0046259Y0058000D01*
X0091259Y0058000D01*
X0091259Y0023184D01*
X0091074Y0023184D01*
X0091074Y0022816D01*
X0085190Y0022816D01*
X0085190Y0018254D01*
X0085340Y0017310D01*
X0085635Y0016402D01*
X0086068Y0015551D01*
X0086630Y0014778D01*
X0087305Y0014103D01*
X0088078Y0013541D01*
X0088929Y0013108D01*
X0089838Y0012812D01*
X0089916Y0012800D01*
X0046259Y0012800D01*
X0046259Y0014394D02*
X0087014Y0014394D01*
X0085843Y0015993D02*
X0046259Y0015993D01*
X0046259Y0017591D02*
X0085295Y0017591D01*
X0085190Y0019190D02*
X0046259Y0019190D01*
X0046259Y0020788D02*
X0085190Y0020788D01*
X0085190Y0022387D02*
X0046259Y0022387D01*
X0046259Y0023985D02*
X0085190Y0023985D01*
X0085190Y0023184D02*
X0091074Y0023184D01*
X0091074Y0033337D01*
X0090781Y0033337D01*
X0089838Y0033188D01*
X0088929Y0032892D01*
X0088078Y0032459D01*
X0087305Y0031897D01*
X0086630Y0031222D01*
X0086068Y0030449D01*
X0085635Y0029598D01*
X0085340Y0028690D01*
X0085190Y0027746D01*
X0085190Y0023184D01*
X0085190Y0025584D02*
X0046259Y0025584D01*
X0046259Y0027182D02*
X0085190Y0027182D01*
X0085369Y0028781D02*
X0046259Y0028781D01*
X0046259Y0030379D02*
X0086033Y0030379D01*
X0087416Y0031978D02*
X0046259Y0031978D01*
X0046259Y0033576D02*
X0091259Y0033576D01*
X0091259Y0031978D02*
X0091074Y0031978D01*
X0091074Y0030379D02*
X0091259Y0030379D01*
X0091259Y0028781D02*
X0091074Y0028781D01*
X0091074Y0027182D02*
X0091259Y0027182D01*
X0091259Y0025584D02*
X0091074Y0025584D01*
X0091074Y0023985D02*
X0091259Y0023985D01*
X0091259Y0035175D02*
X0046259Y0035175D01*
X0046259Y0036773D02*
X0091259Y0036773D01*
X0091259Y0038372D02*
X0046259Y0038372D01*
X0046259Y0039970D02*
X0091259Y0039970D01*
X0091259Y0041569D02*
X0046259Y0041569D01*
X0046259Y0043167D02*
X0091259Y0043167D01*
X0091259Y0044766D02*
X0046259Y0044766D01*
X0046259Y0046364D02*
X0091259Y0046364D01*
X0091259Y0047963D02*
X0046259Y0047963D01*
X0046259Y0049561D02*
X0091259Y0049561D01*
X0091259Y0051160D02*
X0046259Y0051160D01*
X0046259Y0052758D02*
X0091259Y0052758D01*
X0091259Y0054357D02*
X0046259Y0054357D01*
X0046259Y0055955D02*
X0091259Y0055955D01*
X0091259Y0057554D02*
X0046259Y0057554D01*
X0101259Y0057554D02*
X0146259Y0057554D01*
X0146259Y0058000D02*
X0146259Y0012800D01*
X0102601Y0012800D01*
X0102680Y0012812D01*
X0103588Y0013108D01*
X0104439Y0013541D01*
X0105212Y0014103D01*
X0105887Y0014778D01*
X0106449Y0015551D01*
X0106882Y0016402D01*
X0107178Y0017310D01*
X0107327Y0018254D01*
X0107327Y0022816D01*
X0101443Y0022816D01*
X0101443Y0023184D01*
X0107327Y0023184D01*
X0107327Y0027746D01*
X0107178Y0028690D01*
X0106882Y0029598D01*
X0106449Y0030449D01*
X0105887Y0031222D01*
X0105212Y0031897D01*
X0104439Y0032459D01*
X0103588Y0032892D01*
X0102680Y0033188D01*
X0101736Y0033337D01*
X0101443Y0033337D01*
X0101443Y0023184D01*
X0101259Y0023184D01*
X0101259Y0058000D01*
X0146259Y0058000D01*
X0146259Y0055955D02*
X0101259Y0055955D01*
X0101259Y0054357D02*
X0146259Y0054357D01*
X0146259Y0052758D02*
X0101259Y0052758D01*
X0101259Y0051160D02*
X0146259Y0051160D01*
X0146259Y0049561D02*
X0101259Y0049561D01*
X0101259Y0047963D02*
X0146259Y0047963D01*
X0146259Y0046364D02*
X0101259Y0046364D01*
X0101259Y0044766D02*
X0146259Y0044766D01*
X0146259Y0043167D02*
X0101259Y0043167D01*
X0101259Y0041569D02*
X0146259Y0041569D01*
X0146259Y0039970D02*
X0101259Y0039970D01*
X0101259Y0038372D02*
X0146259Y0038372D01*
X0146259Y0036773D02*
X0101259Y0036773D01*
X0101259Y0035175D02*
X0146259Y0035175D01*
X0146259Y0033576D02*
X0101259Y0033576D01*
X0101259Y0031978D02*
X0101443Y0031978D01*
X0101443Y0030379D02*
X0101259Y0030379D01*
X0101259Y0028781D02*
X0101443Y0028781D01*
X0101443Y0027182D02*
X0101259Y0027182D01*
X0101259Y0025584D02*
X0101443Y0025584D01*
X0101443Y0023985D02*
X0101259Y0023985D01*
X0106484Y0030379D02*
X0146259Y0030379D01*
X0146259Y0028781D02*
X0107148Y0028781D01*
X0107327Y0027182D02*
X0146259Y0027182D01*
X0146259Y0025584D02*
X0107327Y0025584D01*
X0107327Y0023985D02*
X0146259Y0023985D01*
X0146259Y0022387D02*
X0107327Y0022387D01*
X0107327Y0020788D02*
X0146259Y0020788D01*
X0146259Y0019190D02*
X0107327Y0019190D01*
X0107222Y0017591D02*
X0146259Y0017591D01*
X0146259Y0015993D02*
X0106674Y0015993D01*
X0105503Y0014394D02*
X0146259Y0014394D01*
X0146259Y0031978D02*
X0105101Y0031978D01*
D17*
X0106259Y0088000D02*
X0106259Y0123000D01*
X0061259Y0123000D01*
X0061259Y0163000D02*
X0071259Y0173000D01*
X0146259Y0173000D01*
X0156259Y0163000D01*
X0126259Y0123000D02*
X0106259Y0123000D01*
X0091259Y0218000D02*
X0056101Y0218000D01*
X0056259Y0258000D02*
X0066259Y0258000D01*
X0081259Y0273000D01*
X0091259Y0273000D02*
X0091259Y0218000D01*
X0116259Y0258000D02*
X0131259Y0258000D01*
X0116259Y0258000D02*
X0101259Y0273000D01*
M02*
