%
M48
M72
T01C0.02362
T02C0.03200
T03C0.03937
T04C0.04331
T05C0.04400
%
T01
X36416Y218000
X56101Y218000
X131416Y218000
X151101Y218000
T02
X151259Y258000
X131259Y258000
X56259Y258000
X36259Y258000
X86259Y88000
X106259Y88000
T03
X101259Y23000
X91259Y23000
X91259Y273000
X81259Y273000
X101259Y273000
T04
X126259Y188000
X156259Y188000
X61259Y188000
X31259Y188000
T05
X31259Y93000
X31259Y103000
X31259Y113000
X31259Y123000
X31259Y133000
X31259Y143000
X31259Y153000
X31259Y163000
X61259Y163000
X61259Y153000
X61259Y143000
X61259Y133000
X61259Y123000
X61259Y113000
X61259Y103000
X61259Y93000
X126259Y93000
X126259Y103000
X126259Y113000
X126259Y123000
X126259Y133000
X126259Y143000
X126259Y153000
X126259Y163000
X156259Y163000
X156259Y153000
X156259Y143000
X156259Y133000
X156259Y123000
X156259Y113000
X156259Y103000
X156259Y93000
M30
