%
M48
M72
T01C0.0236
T02C0.0320
T03C0.0360
T04C0.0394
T05C0.0400
%
T01
X9100Y14100
X18600Y17600
T02
X3600Y28600
X2600Y28600
T03
X4600Y5100
X4600Y6100
X4600Y7100
X4600Y8100
X4600Y9100
X4600Y10100
X4600Y11100
X4600Y12100
X4600Y13100
X4600Y14100
X5600Y14100
X5600Y13100
X5600Y12100
X5600Y11100
X5600Y10100
X5600Y9100
X5600Y8100
X5600Y7100
X5600Y6100
X5600Y5100
X21600Y5100
X21600Y6100
X21600Y7100
X21600Y8100
X21600Y9100
X21600Y10100
X21600Y11100
X21600Y12100
X21600Y13100
X21600Y14100
X22600Y14100
X22600Y13100
X22600Y12100
X22600Y11100
X22600Y10100
X22600Y9100
X22600Y8100
X22600Y7100
X22600Y6100
X22600Y5100
X22600Y18600
X22600Y19600
X22600Y20600
X22600Y21600
X22600Y22600
X22600Y23600
X22600Y24600
X22600Y25600
X22600Y26600
X22600Y27600
X22600Y28600
X22600Y29600
X22600Y30600
X22600Y31600
X22600Y32600
X21600Y32600
X21600Y31600
X21600Y30600
X21600Y29600
X21600Y28600
X21600Y27600
X21600Y26600
X21600Y25600
X21600Y24600
X21600Y23600
X21600Y22600
X21600Y21600
X21600Y20600
X21600Y19600
X21600Y18600
T04
X4600Y32100
X3600Y32100
X2600Y32100
T05
X7100Y24600
X7100Y23600
X7100Y22600
X7100Y21600
X11100Y21600
X12100Y21600
X13100Y21600
X14100Y21600
X15100Y21600
X16100Y21600
X16100Y16100
X15100Y16100
X14100Y16100
X13100Y16100
X12100Y16100
X11100Y16100
X11100Y10600
X12100Y10600
X13100Y10600
X14100Y10600
X15100Y10600
X16100Y10600
X13100Y6600
X13100Y5600
X13100Y4600
X13100Y3600
X13100Y2600
X12100Y2600
X12100Y3600
X12100Y4600
X12100Y5600
X12100Y6600
X12100Y27100
X13100Y27100
X14100Y27100
X15100Y27100
X16100Y27100
X11100Y27100
M30
