G75*
%MOIN*%
%OFA0B0*%
%FSLAX24Y24*%
%IPPOS*%
%LPD*%
%AMOC8*
5,1,8,0,0,1.08239X$1,22.5*
%
%ADD10OC8,0.0780*%
%ADD11OC8,0.0860*%
%ADD12C,0.0820*%
%ADD13OC8,0.0820*%
%ADD14C,0.0860*%
%ADD15C,0.0854*%
%ADD16C,0.0400*%
%ADD17R,0.0696X0.0696*%
%ADD18C,0.0700*%
D10*
X002600Y028600D03*
X003600Y028600D03*
D11*
X012100Y006600D03*
X012100Y005600D03*
X012100Y004600D03*
X012100Y003600D03*
X012100Y002600D03*
X013100Y002600D03*
X013100Y003600D03*
X013100Y004600D03*
X013100Y005600D03*
X013100Y006600D03*
D12*
X021600Y032600D03*
D13*
X004600Y005100D03*
X004600Y006100D03*
X004600Y007100D03*
X004600Y008100D03*
X004600Y009100D03*
X004600Y010100D03*
X004600Y011100D03*
X004600Y012100D03*
X004600Y013100D03*
X004600Y014100D03*
X005600Y014100D03*
X005600Y013100D03*
X005600Y012100D03*
X005600Y011100D03*
X005600Y010100D03*
X005600Y009100D03*
X005600Y008100D03*
X005600Y007100D03*
X005600Y006100D03*
X005600Y005100D03*
X021600Y005100D03*
X021600Y006100D03*
X021600Y007100D03*
X021600Y008100D03*
X021600Y009100D03*
X021600Y010100D03*
X021600Y011100D03*
X021600Y012100D03*
X021600Y013100D03*
X021600Y014100D03*
X022600Y014100D03*
X022600Y013100D03*
X022600Y012100D03*
X022600Y011100D03*
X022600Y010100D03*
X022600Y009100D03*
X022600Y008100D03*
X022600Y007100D03*
X022600Y006100D03*
X022600Y005100D03*
X022600Y018600D03*
X022600Y019600D03*
X022600Y020600D03*
X022600Y021600D03*
X022600Y022600D03*
X022600Y023600D03*
X022600Y024600D03*
X022600Y025600D03*
X022600Y026600D03*
X022600Y027600D03*
X022600Y028600D03*
X022600Y029600D03*
X022600Y030600D03*
X022600Y031600D03*
X022600Y032600D03*
X021600Y031600D03*
X021600Y030600D03*
X021600Y029600D03*
X021600Y028600D03*
X021600Y027600D03*
X021600Y026600D03*
X021600Y025600D03*
X021600Y024600D03*
X021600Y023600D03*
X021600Y022600D03*
X021600Y021600D03*
X021600Y020600D03*
X021600Y019600D03*
X021600Y018600D03*
D14*
X016100Y016530D02*
X016100Y015670D01*
X015100Y015670D02*
X015100Y016530D01*
X014100Y016530D02*
X014100Y015670D01*
X013100Y015670D02*
X013100Y016530D01*
X012100Y016530D02*
X012100Y015670D01*
X011100Y015670D02*
X011100Y016530D01*
X011100Y021170D02*
X011100Y022030D01*
X012100Y022030D02*
X012100Y021170D01*
X013100Y021170D02*
X013100Y022030D01*
X014100Y022030D02*
X014100Y021170D01*
X015100Y021170D02*
X015100Y022030D01*
X016100Y022030D02*
X016100Y021170D01*
X016100Y026670D02*
X016100Y027530D01*
X015100Y027530D02*
X015100Y026670D01*
X014100Y026670D02*
X014100Y027530D01*
X013100Y027530D02*
X013100Y026670D01*
X012100Y026670D02*
X012100Y027530D01*
X011100Y027530D02*
X011100Y026670D01*
X007530Y024600D02*
X006670Y024600D01*
X006670Y023600D02*
X007530Y023600D01*
X007530Y022600D02*
X006670Y022600D01*
X006670Y021600D02*
X007530Y021600D01*
X011100Y011030D02*
X011100Y010170D01*
X012100Y010170D02*
X012100Y011030D01*
X013100Y011030D02*
X013100Y010170D01*
X014100Y010170D02*
X014100Y011030D01*
X015100Y011030D02*
X015100Y010170D01*
X016100Y010170D02*
X016100Y011030D01*
D15*
X004600Y031673D02*
X004600Y032527D01*
X003600Y032527D02*
X003600Y031673D01*
X002600Y031673D02*
X002600Y032527D01*
D16*
X003600Y032100D02*
X003600Y028600D01*
X009100Y028600D01*
X009100Y014100D01*
X011100Y016100D02*
X011100Y010600D01*
X013100Y010600D02*
X013100Y016100D01*
X013100Y021600D01*
X013100Y027100D01*
X012100Y027100D02*
X012100Y021600D01*
X011100Y021600D02*
X011100Y016100D01*
X014100Y016100D02*
X014100Y021600D01*
X014100Y027100D01*
X015100Y027100D02*
X015100Y021600D01*
X015100Y016100D01*
X015100Y010600D01*
X014100Y010600D02*
X014100Y016100D01*
X011100Y021600D02*
X011100Y027100D01*
X011100Y032100D01*
X004600Y032100D01*
X016100Y027100D02*
X018600Y027100D01*
X018600Y017600D01*
D17*
X018600Y017600D03*
X009100Y014100D03*
D18*
X012100Y016100D02*
X012100Y010600D01*
X012100Y006600D01*
X012100Y016100D02*
X012100Y021600D01*
X007100Y024600D02*
X002600Y024600D01*
X002600Y028600D01*
X002600Y032100D01*
M02*
